<svg xmlns="http://www.w3.org/2000/svg" viewBox="0 0 359.13 264.43"><defs><style>.cls-1{fill:#43d9bd;}</style></defs><g id="Layer_2" data-name="Layer 2"><g id="Layer_1-2" data-name="Layer 1"><g id="wivyas.tif"><path class="cls-1" d="M111.85,231.91c-1.54,1.33-3.11,2.8-4.78,4.13-10.68,8.49-22.53,10.87-35,5-15.32-7.23-24.73-19.43-26.62-36.53C44.07,192,50.6,182.3,62.69,178.68c6-1.8,12.29-2.54,18.4-3.75V138.22c-11.42,0-23.2-.12-35,.18-1.23,0-2.72,2.33-3.55,3.87-4.71,8.71-13.47,13.34-23.22,12.07A22.41,22.41,0,0,1,15,111a21.94,21.94,0,0,1,27.4,11.09c1.57,3.35,3.38,4.15,6.71,4.07,7.93-.19,15.87-.06,24.65-.06-1.33-2.34-2.26-4-3.23-5.67-5.85-10-10.33-20.48-10.95-32.24-1-19.58,9.52-35.69,27.31-41.83,18.12-6.26,37.68-.15,48.6,15.65,7.91,11.45,11.67,24.14,9.66,38.22a20.16,20.16,0,0,0,.39,5.39A141.22,141.22,0,0,1,141.39,162a29.43,29.43,0,0,1-13.33,18c-1.2.74-2.6,2.89-2.33,4,3.21,13.36.89,25.73-6.35,37.7,15,12.37,32.55,17.47,52.47,19.76-3-3.59-5.31-6.27-7.51-9.07-10.23-13-17.35-27.5-20-44-1.83-11.5,1.44-21.62,8.32-30.87a8.68,8.68,0,0,0,1.4-6.54A142,142,0,0,1,154,74.13c.88-3.23.24-5.07-2.15-7.28-9.7-8.95-17.28-19.33-20.31-32.47-4.27-18.47,5.39-31.91,24.33-34,13.76-1.51,26.75,1.4,39.37,6.7,1.62.68,4.06,1.05,5.48.32,34.28-17.63,71,2.26,83,35.12,4.11,11.27,5.69,22.83,3.65,34.8a9.56,9.56,0,0,0,1.09,5.42c5.61,11.27,11.66,22.33,17,33.72,3.36,7.17,7.33,10.51,15.23,10.43,5.15,0,10.3-.35,15.45-.57.24,0,.47-.34.57-.42-4.53-4.74-9-9.6-13.65-14.23-3-3-4.43-5.93-1.33-9.51,2.64-3.05,6.2-2.72,9.92.85q12.06,11.56,24,23.23c4.59,4.48,4.61,7.33.08,11.75q-12.13,11.87-24.4,23.6c-3.45,3.3-6.87,3.45-9.59.63s-2.24-5.89,1.25-9.5c4.24-4.4,8.42-8.84,13-13.64-4.83,0-9.53,0-14.23,0-14.19.16-22.42-5.72-27.89-18.88-4-9.73-8.9-19.11-13.45-28.77-13.58,8.45-18.07,11-41.72,11.17,12,5.81,25.13,12.06,38.16,18.5,16.37,8.09,27.22,20.43,29.66,39.15a5.32,5.32,0,0,0,2,3.2c12.53,9.36,15,22.05,10.91,36.07-7.15,24.26-24.14,38.57-48.1,45.34a23.81,23.81,0,0,0-8.31,4c-23.16,18.5-47.42,20.54-73.28,6a10.89,10.89,0,0,0-5.52-1.61c-26.23,1.49-50-5.36-71.19-20.89A6.1,6.1,0,0,0,111.85,231.91Zm181.8-73.74c-2.54-10.7-8.26-18.32-17.06-23-12.12-6.51-24.51-12.59-37.09-18.14-5.37-2.36-11.46-3.36-17.34-4.17s-11.78.68-14.61,6.36c-2.94,5.93-4.66,12.47-7.06,19.16l4.86.9c14.22,2.63,25.79,9.6,34,21.54,2.17,3.17,4.12,3.83,7.71,3C262.11,160.36,277.16,156.62,293.65,158.17Zm1.4,12.51c-17.51-2.24-32.81,2.39-48.47,5.66,4,20-1.46,37.15-13.4,52.57,7.51,3.93,19.59,6.29,26.52,5.13a7.44,7.44,0,0,0,3.75-2c13.1-13.17,23.13-28.29,28.47-46.21C293.32,181.08,293.94,176.15,295.05,170.68Zm-126-12.82c11.31,27.78,28.61,49.14,52.27,65.45,12.23-12.68,17.92-33.49,12.91-43.21-6.79,0-13.08.21-19.36,0-14.48-.58-23.34-8.62-25.66-23-.31-1.92-.69-3.83-1.18-6.59ZM85.42,121.15c.87-2.43,1.34-4.18,2.1-5.79,3.68-7.77,6.74-15.93,11.31-23.15,7-11,16.7-17.9,31.35-14.89-2.62-4.56-5.14-9.08-8.62-12.67-8.44-8.72-21.39-10.84-32.71-6-11,4.71-17.49,14.8-17.19,27.27C72,99,78,110,85.42,121.15ZM276,67.9c-.91-21.42-8.64-37.43-25.71-48.11-11.94-7.47-24.74-8.76-39-3.58C224,25.71,232.16,37,234.62,52.29,250.46,50.87,263.9,55.83,276,67.9ZM222.26,53.25c-2.31-13.54-10.51-22.13-21-28.94a4.16,4.16,0,0,0-3.84.13c-13.4,10.83-21.84,25-27.95,41.08,3.14,2,5.79,4.1,8.77,5.46a6.62,6.62,0,0,0,5.07-.38c8.36-4.29,16.46-9.13,24.93-13.17C212.49,55.4,217.36,54.66,222.26,53.25Zm-9.47,179.16a158.39,158.39,0,0,1-52.51-64c-4.42,6.78-5,13.73-3.48,20.66,4.43,20,14.89,36.4,30.71,49.35,1.21,1,3.5,1.74,4.88,1.3C198.81,237.67,205.09,235.2,212.79,232.41Zm-110.06-9.66a89.4,89.4,0,0,1-18-32.76c-.29-.92-1.84-2.2-2.62-2.08-5.88.84-11.83,1.56-17.51,3.19-5,1.44-7.28,5.65-7,10.84.64,12.4,7.26,21.14,17.63,27.12C85,234.69,95.39,232.19,102.73,222.75ZM195,113.18c-7.7.66-14.72-1.58-19.47-8.63-4.58-6.8-5.09-14.17-2.08-21.74-2.32-1.45-4.27-2.69-6.24-3.9a12.89,12.89,0,0,0-1.79-.67c-5.87,22.74-6,45.23-.19,67.17,7.57-2.19,14.69-4.19,21.75-6.39a4.15,4.15,0,0,0,2.39-2.48C191.35,128.89,193.12,121.19,195,113.18ZM159.57,57.3c6.47-15.37,15-28.81,27.31-40.27-11.59-4.32-22.68-6.51-34.18-3.51-7.75,2-11.17,7.59-9.84,15.45C144.76,40.24,150.91,49.06,159.57,57.3ZM120.81,169.79a15.39,15.39,0,0,0,8.65-10.7,196.48,196.48,0,0,0,3.95-19.51c.83-5.9.85-11.92,1.31-19.27-11.2,10.25-23.13,15.18-36.6,17.4Zm107.31-80.5c15.14,1.14,30.45,3.41,43.84-7.65-10.06-12-21.27-19.19-36-17.06ZM97.2,125.44c13.85-2.84,25.38-7.6,32.83-19.19,2.81-4.37,1.05-11.75-3.4-15.6-3.12-2.7-7.93-1.86-12.46,2.22a27.6,27.6,0,0,0-2.76,2.86C104.47,104.22,100.45,114.1,97.2,125.44ZM22.31,142.32a10.15,10.15,0,1,0-10.09-10.2A10.15,10.15,0,0,0,22.31,142.32ZM192.62,78.94c7.22,2.43,13.43,4.61,19.72,6.55.92.29,2.87-.25,3.2-.95,2.74-5.7,5.2-11.52,7.75-17.3l-1.5-1C211.69,68.59,202,72,192.62,78.94ZM95.92,187.25l13.59,25.82c5.76-8.94,6.7-19.91,3-27.7Zm110.25,61.42c7.92,5.28,31.52,4.8,37.9-2.92-5.78-2-11.68-4.15-17.67-6-1.52-.48-3.64-.7-4.94,0C216.22,242.5,211.19,245.68,206.17,248.67Zm-5-97.62c.42,14.91,12,21.21,27.28,15.27A40,40,0,0,0,201.17,151.05ZM306.05,179.4c-3.2,16.76-10.5,31.29-19.61,45C304.89,213.05,313.4,189.48,306.05,179.4Zm-197.46-5.82-14.73-21-1.49.64c.45,7.12.89,14.23,1.36,21.66Zm95.25-77.3-19-7.38c-1.45,4.45-.52,8.23,2.39,10.52C191,102.33,196.73,101.35,203.84,96.28Z"/></g></g></g></svg>