<svg xmlns="http://www.w3.org/2000/svg" viewBox="0 0 128.95 45.18"><defs><style>.cls-1,.cls-3,.cls-5{fill:#fff;}.cls-2{fill:#5fc4b3;}.cls-3{font-size:16.72px;font-family:ConthraxSb-Regular, Conthrax;}.cls-4{fill:none;stroke:#5fc4b3;stroke-miterlimit:10;stroke-width:5px;opacity:0.43;}.cls-5{font-size:4px;font-family:HelveticaNeue-Thin, Helvetica Neue;font-weight:200;letter-spacing:0.28em;}.cls-6{letter-spacing:0.31em;}</style></defs><g id="Layer_2" data-name="Layer 2"><g id="Layer_1-2" data-name="Layer 1"><path class="cls-1" d="M38.16,22a2.67,2.67,0,0,0,1.7.29c.19,0,.36-.11.56-.14a.81.81,0,0,1,.6.12.7.7,0,0,1,.28.67,1.13,1.13,0,0,1-.35.58.47.47,0,0,1-.29.16.78.78,0,0,1-.46-.23,4.32,4.32,0,0,0-1.38-.95.84.84,0,0,0-.44-.05.65.65,0,0,0-.45.54,9.37,9.37,0,0,0-.31.89c0,.33-.41,0-.69,0a2.11,2.11,0,0,1-.78-.32,2.25,2.25,0,0,1-1.08-1.33,1.77,1.77,0,0,1-.15-.73,1.34,1.34,0,0,1,.56-.82.68.68,0,0,1,.68-.18c.2.07.49-.38.64-.23C37.24,20.68,37.6,21.73,38.16,22Z"/><path class="cls-1" d="M36.55,17.37c-.23-.31-.46-.61-.68-.92-1.43-1.92-2.95-4.26-2.53-5.49a5.34,5.34,0,0,1,2.24-3.12A10.09,10.09,0,0,0,33.11,6.4c.06.32.11.64.14.94a3.3,3.3,0,0,1-.71,2.37c-.09.11-.19.2-.28.3a6.61,6.61,0,0,1-2.66.91,5.49,5.49,0,0,1-2-.1,7.8,7.8,0,0,0-2.25.17c-.08,0-.17,0-.14.17a1.19,1.19,0,0,0,.36.48l7.27,7.05A15.62,15.62,0,0,0,35.56,21a4.89,4.89,0,0,0,.94.41C36.58,20,36.11,18.7,36.55,17.37Z"/><path class="cls-1" d="M19,16a5,5,0,0,1-3.7,2,2.2,2.2,0,0,1-1.35-.31c-.44-.3-.74-.85-1.25-1s-1.16.49-1.24,1.12a1.25,1.25,0,0,0,1.64,1.42,8,8,0,0,0,1.4-.55A2.15,2.15,0,0,1,16,18.52a2.26,2.26,0,0,1,1.28,1.56,13.59,13.59,0,0,0,.6,2,1.69,1.69,0,0,0,1.61,1.1,1.54,1.54,0,0,0,.87-.51,4.45,4.45,0,0,0,.9-2.35,8.84,8.84,0,0,0,.11-2.18A3.1,3.1,0,0,0,21,17a1.76,1.76,0,0,0-1.33-1A.5.5,0,0,0,19,16Z"/><path class="cls-1" d="M36.83,16.82a15.39,15.39,0,0,0,1.55-2.6,3.19,3.19,0,0,1,2.46-1.3,4,4,0,0,0,2.59-1.09,23.75,23.75,0,0,1-9.77,1,11.28,11.28,0,0,1-3-.67A22.21,22.21,0,0,0,27,11.6a.51.51,0,0,0-.42.11c-.13.14-.07.35,0,.53l3.19,8.33a6.89,6.89,0,0,0,1.61,2.79c1.33,1.2,3.36,1.2,4.94,2.05.92-1.78.74-3.9.75-5.9s.34-4.62,2.43-5.57a21.84,21.84,0,0,1,7.12-2.06c-.21-.63-1.54-1.57-2.2-2a8.93,8.93,0,0,1-.87.87,9.66,9.66,0,0,1-3.86,1.86,13.45,13.45,0,0,1-4.21.46,30.83,30.83,0,0,1-3.24.23l3.62,4.8A10,10,0,0,1,36.83,16.82Z"/><path class="cls-1" d="M25.5,11a6.59,6.59,0,0,1-3.4-2.72,9.15,9.15,0,0,1-.91-5.67,10.45,10.45,0,0,0-3.26,1.44,10.9,10.9,0,0,1,1,.82,5.46,5.46,0,0,1,1.58,3.31,6.4,6.4,0,0,1-.42,3.38,15.45,15.45,0,0,1-.49,2.6L27,12A12.61,12.61,0,0,1,25.5,11Z"/><circle class="cls-1" cx="19.09" cy="2.26" r="2.26"/><circle class="cls-1" cx="6" cy="28.66" r="2.26"/><circle class="cls-1" cx="19.09" cy="42.92" r="2.26"/><circle class="cls-1" cx="40.03" cy="35.01" r="1.93"/><circle class="cls-1" cx="46.49" cy="9.58" r="2.26"/><path class="cls-1" d="M8.09,27.06a5,5,0,0,0,3.45-1.26A5.36,5.36,0,0,0,13.86,23c.2-.86.05-1.9.68-2.52a25.64,25.64,0,0,0,1.84,6.78,5.2,5.2,0,0,0,1.88,2.87l-2-1.73A5.59,5.59,0,0,0,14.05,27a4.25,4.25,0,0,0-1.74,0A8,8,0,0,0,8,29.26a3.38,3.38,0,0,1-1.18.95,1.75,1.75,0,0,1-2.07-1.09c-.29-.72-.25-2.08.52-2.53S7.25,26.94,8.09,27.06Z"/><path class="cls-1" d="M17.88,30a9.52,9.52,0,0,1,2.33,7.47,4.18,4.18,0,0,1-1,2.39c-.68.72-1.76,1.09-2.12,2a2.22,2.22,0,0,0,1.62,2.65,2.4,2.4,0,0,0,1.88-.12,2.67,2.67,0,0,0,1.15-2.44,14.64,14.64,0,0,0-.54-2.76,4.17,4.17,0,0,1,.13-2.77,4,4,0,0,1,3.19-1.85,26.64,26.64,0,0,0,3.8-.45,3.13,3.13,0,0,0,2.46-2.61,2.87,2.87,0,0,0-.63-1.76,7.86,7.86,0,0,0-3.89-2.44,16,16,0,0,0-3.85-.92,5.76,5.76,0,0,0-2.15.16,3.27,3.27,0,0,0-2.22,2.13A1,1,0,0,0,17.88,30Z"/><path class="cls-1" d="M36.83,29.87a5.48,5.48,0,0,0,2.68,2.79c.43.19.89.31,1.3.52a1.62,1.62,0,0,1,.91,1A1.5,1.5,0,0,1,41,35.72a3.66,3.66,0,0,1-1.7.5,1.24,1.24,0,0,1-.81-.11,1.27,1.27,0,0,1-.45-1,8,8,0,0,0-.89-3.49,1.71,1.71,0,0,0-.73-.68,2.07,2.07,0,0,0-1.83.32,20.87,20.87,0,0,0-2.17,1.08c-.65.51-.81-.53-1.25-1a3.93,3.93,0,0,1-.91-1.6A4.49,4.49,0,0,1,30,28a5.43,5.43,0,0,1,.62-2,4.09,4.09,0,0,1,1.05-1.44A4.17,4.17,0,0,1,34.22,24a1.74,1.74,0,0,1,1.6.61c.25.4,1.6,0,1.61.47C37.48,26.37,36.27,28.65,36.83,29.87Z"/><circle class="cls-2" cx="25.8" cy="22.59" r="9.39"/><path class="cls-1" d="M25.8,15.7a6.89,6.89,0,1,1-6.89,6.89A6.89,6.89,0,0,1,25.8,15.7m0-5A11.89,11.89,0,1,0,37.68,22.59,11.89,11.89,0,0,0,25.8,10.7Z"/><text class="cls-3" transform="translate(53.53 26.06) scale(0.98 1)">Nebula</text><circle class="cls-1" cx="34.44" cy="6.96" r="1.45"/><circle class="cls-1" cx="40.68" cy="23.05" r="0.65"/><circle class="cls-4" cx="25.8" cy="22.59" r="6.95"/><text class="cls-5" transform="translate(54.61 31.26) scale(0.98 1)">E-Spo<tspan class="cls-6" x="16.14" y="0">r</tspan><tspan x="18.48" y="0">ts &amp; Gaming Platform</tspan></text><path class="cls-1" d="M16.81,17.41c-.67-1-1.34-2-2-3-1.13-1.78-2.2-3.61-3.18-5.47C11.16,8,10.69,7,10.3,6.06a13.7,13.7,0,0,1-.52-1.48,5.11,5.11,0,0,1-.15-.74c0-.24,0-.49.1-.55a.75.75,0,0,1,.55.09,4.85,4.85,0,0,1,.64.4,11,11,0,0,1,1.2,1c.77.7,1.5,1.46,2.22,2.23,1.43,1.54,2.78,3.15,4.13,4.78.45.55.89,1.11,1.34,1.67a1.48,1.48,0,0,1,.72-.27c-.5-.62-1-1.24-1.52-1.85C17.65,9.7,16.24,8.12,14.76,6.6c-.75-.76-1.5-1.5-2.31-2.2a13.51,13.51,0,0,0-1.27-1A5.2,5.2,0,0,0,10.46,3a1,1,0,0,0-1,0,1,1,0,0,0-.25.93,4.06,4.06,0,0,0,.19.8A12.22,12.22,0,0,0,10,6.18c.44,1,.92,1.92,1.42,2.85,1,1.86,2.1,3.67,3.19,5.48.67,1.08,1.35,2.14,2,3.21A3.07,3.07,0,0,1,16.81,17.41Z"/><path class="cls-1" d="M38.89,42.69a5.29,5.29,0,0,0-.17-.79,13.2,13.2,0,0,0-.53-1.49c-.41-1-.89-1.93-1.36-2.87-.95-1.89-2-3.74-3.07-5.56-.3-.52-.62-1-.93-1.54l-.49.31c.33.5.68,1,1,1.49,1.16,1.76,2.28,3.55,3.31,5.39.52.92,1,1.86,1.42,2.83a15.33,15.33,0,0,1,.56,1.47,6.6,6.6,0,0,1,.17.77.84.84,0,0,1-.15.7.84.84,0,0,1-.72-.08,4.56,4.56,0,0,1-.67-.4,12.8,12.8,0,0,1-1.23-1,31.28,31.28,0,0,1-2.23-2.23c-1.42-1.56-2.77-3.19-4.08-4.84l-1.91-2.47-.67.13q1.09,1.34,2.22,2.64c1.39,1.6,2.81,3.17,4.3,4.67.75.75,1.49,1.5,2.29,2.2a13.15,13.15,0,0,0,1.25,1,4.76,4.76,0,0,0,.69.4.87.87,0,0,0,.8.06A.91.91,0,0,0,38.89,42.69Z"/><path class="cls-1" d="M16.32,25.92c-1.28,0-2.55,0-3.83,0-2.11,0-4.22-.13-6.32-.33-1-.1-2.1-.23-3.13-.43a13,13,0,0,1-1.52-.37,4.26,4.26,0,0,1-.7-.28c-.21-.11-.41-.28-.41-.39s.18-.28.38-.4a4.72,4.72,0,0,1,.68-.32A12.29,12.29,0,0,1,3,22.94c1-.26,2-.46,3.08-.64,2.07-.35,4.16-.6,6.26-.83.71-.08,1.42-.15,2.14-.21a1.33,1.33,0,0,1,.16-.76l-2.38.26c-2.11.25-4.2.57-6.29,1-1,.2-2.08.43-3.1.73A12,12,0,0,0,1.3,23a5.68,5.68,0,0,0-.74.37,1,1,0,0,0-.56.79c.08.44.41.58.64.72a4.77,4.77,0,0,0,.77.28A14.68,14.68,0,0,0,3,25.49c1.05.17,2.11.28,3.16.37,2.11.18,4.23.25,6.34.33l3.87.07Z"/><path class="cls-1" d="M49.34,21.28a5.21,5.21,0,0,0-.74-.3,13.91,13.91,0,0,0-1.55-.36c-1-.2-2.09-.31-3.14-.44-2.11-.23-4.22-.37-6.34-.47-.51,0-1,0-1.54-.05.06.18.14.37.19.56l1.34,0c2.11,0,4.22,0,6.33.19a27.69,27.69,0,0,1,3.14.36,11.4,11.4,0,0,1,1.54.33,5.8,5.8,0,0,1,.73.28c.22.11.47.27.51.51s-.25.42-.46.56a5.66,5.66,0,0,1-.7.34,15.59,15.59,0,0,1-1.51.48c-1,.26-2,.48-3.09.64-2.08.34-4.18.58-6.28.77l-1.23.1c0,.16,0,.32-.06.47a.14.14,0,0,0,0,.07l1.36-.17c2.1-.29,4.19-.62,6.26-1,1-.22,2.08-.43,3.1-.72a15.57,15.57,0,0,0,1.5-.51,4.84,4.84,0,0,0,.72-.36c.21-.15.47-.33.48-.63S49.57,21.41,49.34,21.28Z"/><path class="cls-1" d="M19.68,32a2.75,2.75,0,0,1-.22.26c-1.39,1.6-2.83,3.18-4.36,4.69a29.32,29.32,0,0,1-2.41,2.17,12.67,12.67,0,0,1-1.34,1,5.81,5.81,0,0,1-.74.4,1.08,1.08,0,0,1-.82.08.74.74,0,0,1-.22-.68,3.16,3.16,0,0,1,.15-.73,10.12,10.12,0,0,1,.54-1.42A24.55,24.55,0,0,1,11.7,35c1.07-1.78,2.23-3.51,3.44-5.22.5-.7,1-1.39,1.52-2.09a6.21,6.21,0,0,1-.21-.85c-.61.89-1.21,1.8-1.79,2.71-1.11,1.76-2.19,3.54-3.16,5.36-.48.92-1,1.83-1.37,2.77a10.82,10.82,0,0,0-.53,1.44,4.83,4.83,0,0,0-.13.76.81.81,0,0,0,.27.74,1.21,1.21,0,0,0,.92-.06,6.07,6.07,0,0,0,.76-.4,13.83,13.83,0,0,0,1.37-.95c.88-.68,1.68-1.41,2.5-2.13,1.61-1.46,3.13-3,4.63-4.53l.3-.32Z"/><path class="cls-1" d="M40.62,1.42a1.34,1.34,0,0,0-1.1.07,4.84,4.84,0,0,0-.78.42,12.34,12.34,0,0,0-1.35,1c-.86.7-1.66,1.43-2.44,2.18-1.57,1.49-3,3.05-4.51,4.61-.87,1-1.74,1.91-2.6,2.87l.41.08c.8-.94,1.6-1.88,2.43-2.79,1.43-1.59,2.92-3.13,4.5-4.6a31.33,31.33,0,0,1,2.47-2.12A14.13,14.13,0,0,1,39,2.19a6.24,6.24,0,0,1,.73-.37,1,1,0,0,1,.63-.08.66.66,0,0,1,.13.53,3,3,0,0,1-.15.71,10.9,10.9,0,0,1-.54,1.4c-.43.92-.92,1.82-1.44,2.71-1,1.78-2.19,3.52-3.36,5.24-.4.59-.81,1.17-1.22,1.75a1.57,1.57,0,0,1,.6.57c.45-.65.9-1.31,1.33-2C36.87,10.94,38,9.17,39,7.35c.49-.92,1-1.84,1.37-2.79a11,11,0,0,0,.52-1.46A4.22,4.22,0,0,0,41,2.31,1,1,0,0,0,40.62,1.42Z"/></g></g></svg>