<svg xmlns="http://www.w3.org/2000/svg" viewBox="0 0 30.18 31.31"><defs><style>.cls-1,.cls-3{fill:none;}.cls-2{fill:#fff;}.cls-3{stroke:#fff;stroke-linecap:round;stroke-miterlimit:10;stroke-width:2px;}</style></defs><g id="Layer_2" data-name="Layer 2"><g id="Layer_1-2" data-name="Layer 1"><path class="cls-1" d="M3.07,7.31h24v24h-24Z"/><path class="cls-2" d="M12.07,28.31a1,1,0,0,0,1,1h4a1,1,0,0,0,1-1v-1h-6Zm3-19a7,7,0,0,0-4,12.74v2.26a1,1,0,0,0,1,1h6a1,1,0,0,0,1-1V22.05a7,7,0,0,0-4-12.74Zm2.85,11.1-.85.6v2.3h-4V21l-.85-.6a5,5,0,1,1,5.7,0Z"/><line class="cls-3" x1="5.59" y1="18.86" x2="1.2" y2="21.05"/><line class="cls-3" x1="9.41" y1="7.56" x2="6.17" y2="3.87"/><line class="cls-3" x1="15.07" y1="5.9" x2="15.07" y2="1"/><line class="cls-3" x1="5.59" y1="12.82" x2="1" y2="11.08"/><line class="cls-3" x1="24.59" y1="19.12" x2="28.98" y2="21.31"/><line class="cls-3" x1="20.77" y1="7.82" x2="24" y2="4.13"/><line class="cls-3" x1="24.59" y1="13.08" x2="29.18" y2="11.34"/></g></g></svg>