<svg width="1095" height="263" viewBox="0 0 1095 263" fill="none" xmlns="http://www.w3.org/2000/svg">
<path d="M1 210.209L78.4446 195.131H201.114L343.894 182.945L485.668 179.137L593.255 163.904L780 158.038L895.908 163.904L1029.64 148.672L1091 141.663" stroke="#8E58FF"/>
<path d="M0.5 260.096L73 227.304L188.447 196.261L341.56 193.377L473.987 151.159L582.727 134.604L779.5 141.663L886 153.053L1019 116.834L1093.5 102.82" stroke="#FDFF8C"/>
<path d="M1 234.249L77.1558 147.154L206.816 132.997L365.363 134.699L517.145 242.959L594.731 124.786L780.179 99.0116L922.01 120.894L1026.23 129.503L1093 108.817" stroke="#94FFEB"/>
<path d="M1 252.86L86.1763 216.949L201.623 185.906L354.737 183.022L487.163 140.804L595.903 124.25L779.5 129.858L899.176 142.699L1032.18 106.479L1094 91.0145" stroke="#F87BEC"/>
<path d="M1 262L82 225.78L200.73 210.441L350.56 191.854L488.545 168.249L596.064 138.524L779.5 111.959L894.323 122.495L1034.49 120.584L1094 99.0116" stroke="#7A97FF"/>
<ellipse cx="779.5" cy="98.6308" rx="3.5" ry="2.6657" fill="#94FFEB"/>
<ellipse cx="779.5" cy="111.578" rx="3.5" ry="2.6657" fill="#7A97FF"/>
<ellipse cx="779.5" cy="129.858" rx="3.5" ry="2.6657" fill="#F87BEC"/>
<ellipse cx="779.5" cy="141.282" rx="3.5" ry="2.6657" fill="#FDFF8C"/>
<ellipse cx="779.5" cy="141.282" rx="3.5" ry="2.6657" fill="#FDFF8C"/>
<ellipse cx="779.5" cy="158.038" rx="3.5" ry="2.6657" fill="#8E58FF"/>
<line x1="779.5" x2="779.5" y2="260.477" stroke="white" stroke-dasharray="2 2"/>
</svg>
