<svg xmlns="http://www.w3.org/2000/svg" viewBox="0 0 692.34 133.41"><defs><style>.cls-1{fill:#fff;}</style></defs><g id="Layer_2" data-name="Layer 2"><g id="Layer_1-2" data-name="Layer 1"><path class="cls-1" d="M288.09,66.24c-2.41.33-4.54,2.82-6.73,4.43-2.84,2.08-5.44,5.76-8.42,6.09a112.24,112.24,0,0,1-22.74-.14c-5.19-.5-7.8-4.37-8.19-9.78-.58-8.11-5.51-12.08-13.54-10.39C212.84,59.75,201.32,69.2,192.25,82c-2.81,4-4.76,10.09-8.47,11.43-4.2,1.51-10-1-15-2.22-11.36-2.8-22.23-1.83-33.3,2.06Q82.3,111.95,28.8,129.72c-7.12,2.35-15,2.58-22.49,3.59C1.56,134,0,131.58,0,126.86Q.28,94.64,0,62.42C0,57.81,1.38,56,6.11,55.53c45.18-4.83,90.34-9.74,135.46-15,7.74-.91,14.55-.34,20.68,4.53,2.88,2.29,5.48,2,8.69.37,14.2-7.31,28.63-14.17,42.78-21.57,8.34-4.36,16.9-6.8,26.33-6.23,3.93.23,7.89,0,12.31,0,0-4.81,0-8.95,0-13.08,0-3.69,1.41-5.32,5.24-4.2,3.52,1,7.05,2,10.61,2.82,2.88.68,4.18,2.21,4,5.27-.2,3.58,0,7.18,0,11.18,11.76,0,22.74-.37,33.67.15,6,.28,10.39-1.37,14.31-5.95a11.35,11.35,0,0,1,7.52-3.77Q411.81,9.74,496,9.93c7.38,0,13.87,2.78,19.92,7a14.27,14.27,0,0,0,7.59,2.57c44.79.15,89.58-.11,134.36.31,8.17.08,13.76-1.34,15.71-9.91.14-.63.42-1.55.88-1.74,1.85-.76,3.86-1.86,5.69-1.67,1,.11,2.3,2.47,2.5,3.95a54.59,54.59,0,0,1,.11,7.89c3.48,2.87,9.67-1.57,9.6,5.07s-6.27,1.89-9.26,4.48c0,3.16-1.67,5.09-5.49,4.55-4.13-.58-10,2.54-10.42-5.09H560.45c.74,5.73-2.18,6.73-6.84,6.52-2-.1-4.34,1.14-6,2.46a37.81,37.81,0,0,0-7.37,7.42c-3.12,4.41-7.49,5-11.9,4-2.79-.64-5.16-3.1-7.76-4.78-18.45,9.72-18.45,9.72-40.23,9.72H336.85v6.13c0,12.82-.17,25.64.08,38.46.09,4.71-1.29,6.7-6.24,6.44-6.31-.33-12.65-.09-19-.08-7.68,0-7.68,0-7.68-7.88,0-9.77,0-19.53,0-29.73C298.3,66,293.11,65.55,288.09,66.24Zm-35.95-7.11c-3.38.53-6,2.08-6.3,6.35-.34,4.43,1.71,7.44,5.91,7.71a159.33,159.33,0,0,0,20.73,0c3.66-.24,5.68-2.86,5.73-6.9s-2-6.22-5.64-7a61.67,61.67,0,0,0-8.37-1.12c-4.91-.42-5.9,3.46-7.11,6.87a40.72,40.72,0,0,0-1.18,5.67l-2.43.13C253,67,252.61,63.2,252.14,59.13Z"/><path class="cls-1" d="M521.13,38h87.53a2,2,0,0,0,0-4H521.13a2,2,0,0,0,0,4Z"/></g></g></svg>