<svg xmlns="http://www.w3.org/2000/svg" viewBox="0 0 544.88 121.5"><defs><style>.cls-1{fill:#fff;}</style></defs><g id="Layer_2" data-name="Layer 2"><g id="Layer_1-2" data-name="Layer 1"><path class="cls-1" d="M34.3,53.5C24.59,49.36,21.54,34.44,28.94,26a35.09,35.09,0,0,1,8.85-7.19c15-8.55,31-13.74,48.4-13.78,40.45-.09,80.9,0,121.35-.14,2.94,0,5.86-1.53,8.8-2.31,3.33-.88,6.67-2.46,10-2.46Q345.21-.1,464.07.11c3.51,0,7.58.78,10.41,2.67,3.93,2.62,7.83,3,12.18,3,17.48-.08,35,.15,52.44-.14,5.47-.1,5.93,2.64,5.75,6.81-.16,3.84.77,7.78-5.54,7.49-8.93-.43-17.89-.11-27.15-.11v9.64c2.83,0,5.59.16,8.32,0,3.35-.24,4.53,1.31,4.36,4.41a33.2,33.2,0,0,0,0,4c.22,3.15-1,4.67-4.34,4.47-2.48-.15-5,0-7.68,0-2.49,9.34-9.95,4.15-15.27,5-1.24.2-3-2.42-4.45-3.75l.66-1.25c-10.79,0-21.57,0-32.36,0a3.43,3.43,0,0,0-2.58,1c-3.06,4.92-7.82,5-12.78,4.91-4-.1-8,0-11.86,0-2.22,6.92-2.24,7.09-14.18,6.07-1.87-.15-3.52-2.75-5.27-4.22l.91-1.52H405.37c-2.1,6.57-2.56,6.92-14.15,5.73-1.73-.18-3.21-2.8-4.81-4.29l.92-1.39H376.71c-1.55,6.24-1.55,5.92-13.26,6-4.86,0-4.17-3.06-4.64-6.42H348c-1.42,6.59-1.42,6.38-13.19,6.37-4.53,0-4.76-2.45-4.32-6H319.86c-1.82,6.35-1.82,6.08-13.78,6-4.78,0-4.15-3.14-4.75-6.15-1.54-.08-3-.22-4.46-.22-28.63,0-57.27-.09-85.9.11a11.69,11.69,0,0,0-7.29,2.95,13.05,13.05,0,0,1-9.75,4c-20.64-.11-41.28.06-61.92-.13-6.09-.06-10.18,1.94-12.34,7.84s-7.39,8.42-13.18,9.35c-10,1.63-19.8,1.35-29-4a15.08,15.08,0,0,0-18,2.31C55,74.84,53.92,81,57,87.6c1.44,3.07,1,4.76-2,6.44-8.08,4.58-9.88,9.1-7.75,18.25,1.11,4.75-1.83,8.89-7.23,9-12,.29-24,.22-35.95,0-1.35,0-3.7-2.12-3.8-3.4a91.5,91.5,0,0,1,.07-15.44c.17-1.93,1.7-3.94,3.06-5.53,8.24-9.59,16.63-19.07,24.94-28.6C32.81,63.22,34.26,59.53,34.3,53.5Zm54-5.79c-5.08,1-9.22,2.89-10.16,8.35-.74,4.27,1.07,7.73,5,9.34,9.27,3.86,18.85,4.08,28-.17,6.76-3.15,6.71-12.13.07-15.55-3-1.54-6.61-2-10-2.77s-5.84.21-6.79,3.84c-1.15,4.42-2.32,8.82-3.71,14.09C86.21,59.34,88.53,53.38,88.31,47.71ZM467,29h26.85V19.8H478.82C470,19.8,469.82,19.93,467,29Z"/></g></g></svg>