<svg xmlns="http://www.w3.org/2000/svg" viewBox="0 0 124.23 45.18"><defs><style>.cls-1,.cls-3{fill:#fff;}.cls-2{fill:#5fc4b3;}.cls-3{font-size:16.72px;font-family:ConthraxSb-Regular, Conthrax;}.cls-4{fill:none;stroke:#5fc4b3;stroke-miterlimit:10;stroke-width:5px;opacity:0.43;}</style></defs><g id="Layer_2" data-name="Layer 2"><g id="Layer_1-2" data-name="Layer 1"><path class="cls-1" d="M34.42,22a2.67,2.67,0,0,0,1.7.29c.19,0,.37-.11.56-.14a.81.81,0,0,1,.6.12.68.68,0,0,1,.28.67,1.13,1.13,0,0,1-.35.58.45.45,0,0,1-.28.16.73.73,0,0,1-.46-.23,4.55,4.55,0,0,0-1.38-.95.89.89,0,0,0-.45-.05c-.26.05-.38.3-.45.54a9.37,9.37,0,0,0-.31.89c0,.33-.41,0-.68,0a2.16,2.16,0,0,1-.79-.32,2.28,2.28,0,0,1-.63-.52,2.7,2.7,0,0,1-.45-.81,1.61,1.61,0,0,1-.14-.73,1.32,1.32,0,0,1,.55-.82.69.69,0,0,1,.68-.18c.21.07.49-.38.64-.23C33.5,20.68,33.86,21.73,34.42,22Z"/><path class="cls-1" d="M32.81,17.37c-.23-.31-.46-.61-.68-.92-1.42-1.92-3-4.26-2.53-5.49a5.31,5.31,0,0,1,2.25-3.12A10.34,10.34,0,0,0,29.37,6.4a6.48,6.48,0,0,1,.14.94,3.21,3.21,0,0,1-.71,2.37,4,4,0,0,1-.28.3,6.51,6.51,0,0,1-2.66.91,5.44,5.44,0,0,1-2-.1,7.74,7.74,0,0,0-2.25.17c-.09,0-.18,0-.15.17a1.19,1.19,0,0,0,.36.48l7.28,7.05A14.91,14.91,0,0,0,31.83,21a4.57,4.57,0,0,0,.93.41C32.84,20,32.38,18.7,32.81,17.37Z"/><path class="cls-1" d="M15.26,16a5,5,0,0,1-3.7,2,2.23,2.23,0,0,1-1.36-.31c-.44-.3-.74-.85-1.25-1s-1.16.49-1.24,1.12a1.4,1.4,0,0,0,.25,1,1.42,1.42,0,0,0,1.39.4,8,8,0,0,0,1.4-.55,2.17,2.17,0,0,1,1.47-.19,2.24,2.24,0,0,1,1.28,1.56,16.45,16.45,0,0,0,.6,2,1.71,1.71,0,0,0,1.61,1.1,1.48,1.48,0,0,0,.87-.51,4.29,4.29,0,0,0,.9-2.35,9.36,9.36,0,0,0,.12-2.18A3.54,3.54,0,0,0,17.31,17,1.78,1.78,0,0,0,16,16,.49.49,0,0,0,15.26,16Z"/><path class="cls-1" d="M33.09,16.82a15.39,15.39,0,0,0,1.55-2.6,3.19,3.19,0,0,1,2.46-1.3,3.93,3.93,0,0,0,2.59-1.09,23.75,23.75,0,0,1-9.77,1,11.28,11.28,0,0,1-3-.67,22.09,22.09,0,0,0-3.71-.52.52.52,0,0,0-.43.11c-.12.14-.06.35,0,.53L26,20.57a7,7,0,0,0,1.61,2.79c1.34,1.2,3.37,1.2,4.95,2.05.92-1.78.73-3.9.75-5.9s.34-4.62,2.43-5.57a21.71,21.71,0,0,1,7.11-2.06c-.2-.63-1.54-1.57-2.19-2a10.35,10.35,0,0,1-.88.87,9.6,9.6,0,0,1-3.86,1.86,13.42,13.42,0,0,1-4.2.46,31,31,0,0,1-3.25.23l3.62,4.8A10,10,0,0,1,33.09,16.82Z"/><path class="cls-1" d="M21.77,11a6.57,6.57,0,0,1-3.41-2.72,9.15,9.15,0,0,1-.9-5.67,10.5,10.5,0,0,0-3.27,1.44,9.62,9.62,0,0,1,1,.82,5.46,5.46,0,0,1,1.58,3.31,6.4,6.4,0,0,1-.42,3.38,13.68,13.68,0,0,1-.49,2.6L23.25,12A13.09,13.09,0,0,1,21.77,11Z"/><circle class="cls-1" cx="15.35" cy="2.26" r="2.26"/><circle class="cls-1" cx="2.26" cy="28.66" r="2.26"/><circle class="cls-1" cx="15.35" cy="42.92" r="2.26"/><circle class="cls-1" cx="36.29" cy="35.01" r="1.93"/><circle class="cls-1" cx="42.75" cy="9.58" r="2.26"/><path class="cls-1" d="M4.35,27.06A5,5,0,0,0,7.8,25.8,5.36,5.36,0,0,0,10.12,23c.2-.86.05-1.9.68-2.52a25.64,25.64,0,0,0,1.84,6.78,5.25,5.25,0,0,0,1.88,2.87l-2-1.73A5.63,5.63,0,0,0,10.31,27a4.2,4.2,0,0,0-1.73,0,7.92,7.92,0,0,0-4.33,2.28,3.5,3.5,0,0,1-1.19.95A1.75,1.75,0,0,1,1,29.12C.71,28.4.74,27,1.52,26.59S3.51,26.94,4.35,27.06Z"/><path class="cls-1" d="M14.14,30a9.49,9.49,0,0,1,2.33,7.47,4.18,4.18,0,0,1-1,2.39c-.67.72-1.76,1.09-2.11,2A2.21,2.21,0,0,0,15,44.49a2.43,2.43,0,0,0,1.89-.12A2.69,2.69,0,0,0,18,41.93a13.91,13.91,0,0,0-.55-2.76,4.17,4.17,0,0,1,.14-2.77,4,4,0,0,1,3.18-1.85,26.78,26.78,0,0,0,3.81-.45,3.13,3.13,0,0,0,2.45-2.61,2.87,2.87,0,0,0-.63-1.76,7.82,7.82,0,0,0-3.89-2.44,16,16,0,0,0-3.85-.92,5.71,5.71,0,0,0-2.14.16,3.23,3.23,0,0,0-2.22,2.13A.94.94,0,0,0,14.14,30Z"/><path class="cls-1" d="M33.1,29.87a5.43,5.43,0,0,0,2.67,2.79c.43.19.89.31,1.3.52a1.67,1.67,0,0,1,.92,1,1.53,1.53,0,0,1-.69,1.53,3.66,3.66,0,0,1-1.69.5,1.28,1.28,0,0,1-.82-.11,1.33,1.33,0,0,1-.45-1,7.85,7.85,0,0,0-.89-3.49,1.71,1.71,0,0,0-.73-.68,2.07,2.07,0,0,0-1.83.32,19.78,19.78,0,0,0-2.16,1.08c-.66.51-.82-.53-1.26-1a3.93,3.93,0,0,1-.91-1.6A4.69,4.69,0,0,1,26.3,28a5.45,5.45,0,0,1,.63-2,4,4,0,0,1,1-1.44A4.17,4.17,0,0,1,30.48,24a1.74,1.74,0,0,1,1.6.61c.25.4,1.6,0,1.61.47C33.74,26.37,32.54,28.65,33.1,29.87Z"/><circle class="cls-2" cx="22.06" cy="22.59" r="9.39"/><path class="cls-1" d="M22.06,15.7a6.89,6.89,0,1,1-6.89,6.89,6.9,6.9,0,0,1,6.89-6.89m0-5A11.89,11.89,0,1,0,34,22.59,11.89,11.89,0,0,0,22.06,10.7Z"/><text class="cls-3" transform="translate(49.51 28.66) scale(0.98 1)">Nebula</text><circle class="cls-1" cx="30.71" cy="6.96" r="1.45"/><circle class="cls-1" cx="36.94" cy="23.05" r="0.65"/><circle class="cls-4" cx="22.06" cy="22.59" r="6.95"/></g></g></svg>