<svg xmlns="http://www.w3.org/2000/svg" viewBox="0 0 20.8 15.25"><defs><style>.cls-1{fill:#fff;stroke:#fff;stroke-miterlimit:10;stroke-width:0.25px;}</style></defs><g id="Layer_2" data-name="Layer 2"><g id="Layer_1-2" data-name="Layer 1"><g id="hvgoyn"><path class="cls-1" d="M7.48,7.13l-.1,1-.21,2.06c-.08.73-.15,1.45-.23,2.18L6.7,14.69a.44.44,0,0,1-.41.43H1.35a.47.47,0,0,1-.4-.56l.39-3.84L1.7,7.25a.53.53,0,0,1,0-.12H.58c-.29,0-.45-.2-.45-.54V.66C.12.34.29.14.55.13H.74q8.88,0,17.76,0a.62.62,0,0,1,.23,0,.48.48,0,0,1,.3.48v.5h1.2c.27,0,.44.2.45.52v2c0,.3-.18.51-.43.51H19V6.56c0,.37-.16.57-.47.57H10.81V9.64a.49.49,0,0,1-.22.43.35.35,0,0,1-.44,0c-.05,0-.1-.12-.15-.18L7.82,7.2a.16.16,0,0,0-.13-.07Zm10.72-1v-1H1v1H2.13c.32,0,.5.25.45.64s-.09.92-.14,1.38l-.27,2.57c-.1,1-.21,2.06-.31,3.09l0,.32h4.1a2.11,2.11,0,0,1,0-.26c.09-.84.17-1.67.26-2.5l.21-2c.09-.9.18-1.81.28-2.71a.54.54,0,0,1,.17-.39.4.4,0,0,1,.29-.1h11ZM1,4.12H18.2v-3H8.35V2.6c0,.32-.17.53-.44.53h-4c-.3,0-.46-.2-.46-.57V1.23a.38.38,0,0,0,0-.1H1Zm3.29-3v1h3.2c.07,0,.08,0,.08-.1v-.8s0-.06,0-.1ZM19,3.12h.77s.05,0,.05-.07V2.2s0-.06-.05-.06H19ZM9,7.14l1,1.23V7.14Z"/></g></g></g></svg>