<svg xmlns="http://www.w3.org/2000/svg" viewBox="0 0 336.32 335.09"><defs><style>.cls-1{fill:#43d9bd;}</style></defs><g id="Layer_2" data-name="Layer 2"><g id="Layer_1-2" data-name="Layer 1"><g id="d5jzpe.tif"><path class="cls-1" d="M141.73,203.53c-3.48,1.06-6.57,1.75-9.45,3a7.26,7.26,0,0,0-3.73,3.32c-8.5,21.12-23.41,35.92-44,45.27-2.57,1.16-5,2.92-7.66,3.52-3,.68-6.6,1.29-9.27.24-3.73-1.46-3.33-5.55-3.19-9.16.43-10.77.66-21.54,1-32.32,0-.33,0-.66,0-1,0-9.43-3-15.68-12.5-20.82-39-21.13-59.47-66.67-50.95-110C10.77,40.57,46,7,90.66,1c58.09-7.8,110.62,32.42,118.4,90.64.09.64.27,1.27.44,2.1,5.8-1,11.43-2.27,17.13-2.92,48.24-5.56,93.31,24.67,106.05,71,13,47.3-9.7,95.55-54.54,115.64-3.1,1.38-4.9,3-5.86,6.51a73.15,73.15,0,0,1-30.72,42.71c-3.45,2.32-6.7,5.05-10.42,6.78-2.61,1.21-6.6,2.32-8.63,1.14-2.29-1.32-3.9-5.12-4.36-8.07-2-12.91-3.52-25.91-5.22-38.87-.53-4-2.91-5.89-6.79-7.34-33.43-12.54-54.33-36.38-63-71C142.7,207.57,142.28,205.81,141.73,203.53Zm-59.85,36c1.27-.6,2.62-1.12,3.85-1.84,14.49-8.48,24.8-20.48,29.71-36.61,1.59-5.22,4.45-7.66,9.62-8.51,3.74-.61,7.31-2.14,11-3.12,3.13-.83,4.18-2.5,4.49-5.94,3.07-35,18.67-62.6,49.43-80.59,4.28-2.5,5.64-4.8,5-9.62-6.42-49.95-52.63-85-102.33-77.36-39.52,6-69.3,35.89-75.87,76-6.06,37,12.93,75.74,47.59,92.27C75.9,189.66,79.61,196.92,80.23,208c0,.67.13,1.33.16,2C80.89,219.68,81.37,229.42,81.88,239.49ZM233.43,313.4c.74-.5,2.13-1.29,3.36-2.27,11.18-8.94,18.6-20.3,21.24-34.41,1.09-5.84,3.76-9.17,9.47-11.37,36.65-14.1,58.77-51.65,53-89.31-6.94-45.2-47.62-75.85-93.33-70.31-38.4,4.66-68.92,36.61-71.86,75.23-3,39.13,22.36,76,59.72,86.32,5.5,1.53,8.71,4.35,9.95,9.74C227.76,289.06,230.57,301.11,233.43,313.4Z"/><path class="cls-1" d="M97.56,118.5c0-3-.06-6,0-9,.16-8.28,3.56-12.18,11.85-13,9.41-.94,16.37-5.21,20-14.11,5-12.49-2.21-26.78-15.41-29.34A50.15,50.15,0,0,0,96.72,53c-9.84,1.58-16.5,9.77-17.36,19.77-.53,6.09-3.64,9.51-8.26,9.06s-6.94-4-6.71-9.88C65.09,54,80.06,38.65,98.79,37.4a66.61,66.61,0,0,1,19.74,1.33c16.55,4,27.94,19.63,27.51,36.45s-12.44,31.94-29,35.41c-4,.83-4.75,2.43-4.57,5.92.22,4.3.13,8.63,0,13-.14,5-3.17,8.27-7.39,8.26s-7.31-3.27-7.53-8.26C97.43,125.81,97.56,122.15,97.56,118.5Z"/><path class="cls-1" d="M105.07,174.76a7.48,7.48,0,0,1-7.43-7.69,7.7,7.7,0,0,1,7.52-7.19,7.44,7.44,0,0,1,7.3,7.77A7.26,7.26,0,0,1,105.07,174.76Z"/><path class="cls-1" d="M247.72,201.86c0,4.4.07,8.7,0,13-.12,5.8-3,9.07-7.73,9s-7.15-3.11-7.23-8.82c-.08-5.15-.06-10.3,0-15.45.09-8.79,3.29-12.17,12.12-13,9.6-1,16.67-5.64,20-14.81,3.18-8.71,1.52-16.84-5.06-23.45-8.92-9-20.16-8.14-30.82-5.22-9.72,2.66-14.46,10.48-15.1,20.66-.3,4.87-3.82,8.08-8,7.77s-6.93-3.65-6.92-8.73c0-17.62,15-34.38,32.62-35.78,6.88-.54,14.08-.61,20.79.79a36.74,36.74,0,0,1,29,36.35,37.72,37.72,0,0,1-29.5,36.65C250.59,201,249.33,201.42,247.72,201.86Z"/><path class="cls-1" d="M240.05,261.47a7.45,7.45,0,0,1,.19-14.9,7.45,7.45,0,1,1-.19,14.9Z"/></g></g></g></svg>