<svg xmlns="http://www.w3.org/2000/svg" viewBox="0 0 123.4 80.9"><defs><style>.cls-1{fill:#fff;}</style></defs><g id="Layer_2" data-name="Layer 2"><g id="Layer_1-2" data-name="Layer 1"><path class="cls-1" d="M73.3,28.27A11.3,11.3,0,0,0,73,30.64c1.09,10.49-3.79,14.56-15.11,14.75-5.82.1-11.65.22-17.46,0-3-.12-4.79,1-5.39,3.81-1.92,9.06-3.88,18.12-5.53,27.23-.46,2.53-.58,4.53-3.87,4.49-7.32-.1-14.65.13-22-.2-1.22,0-3.26-2.2-3.35-3.5C-.4,67,.67,57,5.56,47.63c1.85-3.53,3.88-7.08,4.9-10.88.49-1.81-.78-4.44-2-6.23-.8-1.2-2.87-1.54-4.34-2.31C-.43,25.82-1.32,21.55,2,17.61c1.46-1.74,3.08-3.33,4.57-4.91C5,10.65,3.73,9,2.75,7.75,6.26,5,9.13,2.38,12.35.35c1.1-.69,3.18-.21,4.68.19,2.91.78,5.72,2.69,8.58,2.72,25.29.22,50.58.05,75.87.17,7.36,0,15.24-2,21.61,4.78-1.3,3.42,3.71,9.58-4.76,10.67v9.39Zm-15.08,11c-4.52.82-6.09-.78-9.22-9.69-3.13.66-6.1,2.13-5.36,5.59.47,2.19,3,5.21,5,5.53a48.43,48.43,0,0,0,15.2,0c2-.32,4.8-3.68,4.73-5.57s-2.94-4.26-5.11-5.45c-1.85-1-4.45-.64-8.32-1Z"/></g></g></svg>