<svg xmlns="http://www.w3.org/2000/svg" viewBox="0 0 531.73 158.55"><defs><style>.cls-1{fill:#fff;}</style></defs><g id="Layer_2" data-name="Layer 2"><g id="Layer_1-2" data-name="Layer 1"><path class="cls-1" d="M272.57,56.54c1.1,11.95,5.26,21.84,10.81,31.22a120.11,120.11,0,0,0,31.75,35.5c3.75,2.79,4.41,5,1.63,9-5.2,7.32-10,14.95-14.94,22.43-3.22,4.83-3.93,5-8.58,1.42-27.67-21.47-48.36-47.87-58.18-83.17-3.15,9.25-9.93,10.64-17.81,10.15a117.09,117.09,0,0,0-13,0,27.34,27.34,0,0,1-19.73-6.39c-4.5,8.43-9,16.3-12.92,24.43-2.83,5.82-5,12-7.32,18-1.43,3.69-3.53,4.65-6.8,2.08a3.79,3.79,0,0,0-.4-.3c-14.1-9.64-14.1-9.64-7.8-25.43,1.17-2.93,2.13-6,3.55-8.78,5.9-11.58,3.2-21.85-4.67-31.74L92.78,74.31,19.31,100c-6,2.11-6.72,1.75-8.23-4.37C7.53,81.23,4.1,66.83.39,52.5c-1-4-.09-6.09,3.93-7.51a93.72,93.72,0,0,1,33.24-5.82c31.53.54,62.85-2.05,94.05-6.36,5.82-.8,10.85-3,14.87-7.37,1.58-1.72,3.46-3.17,4.91-5,4.54-5.65,10.2-8.34,17.51-7.29a41.27,41.27,0,0,0,5.19,0c0-3.07,0-5.83,0-8.59,0-3.06,1.37-4.54,4.56-4.53q39.69,0,79.4-.09c3.15,0,4.61,1.33,4.55,4.48-.06,2.65,0,5.29,0,8.37H290c.17-.24.5-.49.52-.76.37-7.66-1.07-7.93,8.66-7.87,7.82,0,15.65,0,23.47,0,8.84,0,8.84,0,10,8.67h7.6c1.65-8.73,1.65-8.73,10.78-8.71q11,0,22,0c8.7,0,8.7,0,9.51,8.78,1.67.07,3.42.22,5.18.23,18.31,0,36.62.11,54.93-.07,4.27-.05,7.6.95,9.47,4.88,4,8.47,10.52,10.88,19.69,10.08,9.91-.87,20,0,29.94-.31a7.93,7.93,0,0,0,5.48-2.93c4.2-6,8.28-12,8.52-19.87.13-4.44,4-3,6.53-3.24s4,1.06,4,3.79c0,7.15,0,14.3,0,21.82,3.48.39,5.93,1.41,5.42,5.72-.58,5-4.36,2.86-6.85,3.71-.18.23-.53.47-.56.75-1,9.42-1,9.42-10.38,9.43q-84.14,0-168.28,0c-4.69,0-8.52.87-11.34,4.74-2.94,4-6.9,5-11.77,4.91-14.64-.26-29.3-.1-44-.1Zm-77.86,0-5.08.36v7.73c0,6.95,2.2,9.78,9,10.32a96.69,96.69,0,0,0,16.93,0c1.78-.17,4.46-2.7,4.74-4.47.69-4.34.23-8.86.23-13.55h-20.4c1.37,4.92,2.57,9.26,4.09,14.75C197.18,68.31,195.93,62.73,194.71,56.56Zm225.65-27.8c6.32,0,12.65.23,18.95-.15,1.83-.1,3.55-1.95,5.32-3-1.75-1-3.49-2.95-5.26-3-12.8-.24-25.62-.2-38.42.05-1.72,0-3.41,1.72-5.11,2.64,1.68,1.14,3.31,3.16,5.06,3.27C407.37,29,413.87,28.75,420.36,28.76Zm89.11,13.1.84-1.42c-1.85-1.26-3.69-3.57-5.56-3.61-12.94-.27-25.91-.36-38.83.15-4.24.17-8.4,2.32-12.59,3.56l.42,1.32ZM403.4,40.4,404,42q18.69,0,37.37,0a14,14,0,0,0,2.12-.36V36.82c-11,0-21.73-.22-32.46.17C408.47,37.08,406,39.21,403.4,40.4ZM345.61,28.73c2.31,0,4.71.38,6.89-.14,1.4-.34,2.47-2,3.69-3.12-1.14-1-2.23-2.7-3.43-2.78a105.43,105.43,0,0,0-14.33.06c-1.1.08-2.06,1.95-3.09,3,1.11,1,2.1,2.57,3.37,2.84C340.91,29.06,343.3,28.72,345.61,28.73Zm31.05-6.16v.1a52,52,0,0,0-7.9.13c-1.1.17-2.74,1.73-2.75,2.68s1.52,2.93,2.47,3a135.17,135.17,0,0,0,15.33.05c1-.06,2.83-2,2.66-2.75a4.77,4.77,0,0,0-2.91-3.06C381.36,22.22,379,22.57,376.66,22.57ZM520.71,15.2l-1-.28-8,12.79h8.93Z"/></g></g></svg>