<svg xmlns="http://www.w3.org/2000/svg" viewBox="0 0 205.87 208.57"><defs><style>.cls-1{fill:#43d9bd;}</style></defs><g id="Layer_2" data-name="Layer 2"><g id="Layer_1-2" data-name="Layer 1"><g id="QflBP0"><path class="cls-1" d="M16.2,189.25V11.87c0-1.5-.39-3.15.11-4.46.7-1.82,1.77-4.35,3.23-4.8s3.6,1.26,5.36,2.17c1.32.68,2.51,2.3,3.76,2.31,20.49.13,41,.08,61.48,0a5.88,5.88,0,0,0,1.61-.55,33.24,33.24,0,0,0,.37-3.33c.07-3.16,2-3.93,4.32-2.69,5.44,2.87,10.76,6,16,9.23,2.43,1.52,2.23,3.65-.21,5.13-5,3-10,5.91-15.08,8.81-3.32,1.91-5,.9-5-2.93a28.54,28.54,0,0,0-.3-2.86H26.1V188.87H60.79V174.52H73.41v14.32h9.71V158.17H95.77V188.9H105V134.44h12.85V189h13.36c-1.12-4.07-2.23-8.58,2.65-10.59,2-.84,6-.64,7.1.71,1.87,2.26,2.18,5.82,3.15,8.83l-1.32,1.33h55.59c1.49,0,3.43-.39,4.36.37,1.47,1.2,3.06,3.22,3.09,4.91,0,1.37-2,3.22-3.5,4-1.32.69-3.25.23-4.92.23H26.13c-1,4.23.66,10-5.65,9.78-5.62-.22-3.87-5.53-4.59-9.78-3.45,0-6.88,0-10.31,0S0,197.59,0,194s2.5-4.74,5.73-4.72Z"/><path class="cls-1" d="M39.72,167.78a29.35,29.35,0,0,1,1.38-3.53c15.58-26.39,31.65-52.43,52.42-75.2,13.15-14.41,29.39-21.9,49-22a36.22,36.22,0,0,1,26.1,10.79c7.17,7.1,13.28,15.27,19.76,23,2,2.39,2.1,4.94-.72,6.87-3,2-4.84.22-6.65-2.06-5.06-6.38-9.8-13.08-15.44-18.91-10.27-10.62-22.75-13.42-37.06-9.27-11,3.19-20.4,8.56-28.13,17.08-19.47,21.45-34.82,45.77-49.59,70.51-1,1.71-1.74,3.79-3.19,5a6,6,0,0,1-4.84,1.14C41.39,170.87,40.58,168.86,39.72,167.78Z"/><path class="cls-1" d="M137.11,154.14a6.56,6.56,0,0,1,6.68,6.59,6.76,6.76,0,1,1-13.51-.17A6.55,6.55,0,0,1,137.11,154.14Z"/><path class="cls-1" d="M143.78,90.73a6.75,6.75,0,0,1-13.5.3,6.75,6.75,0,0,1,13.5-.3Z"/><path class="cls-1" d="M73.79,72.43a6.5,6.5,0,0,1-6.74,6.49,6.42,6.42,0,0,1-6.79-6.4,6.77,6.77,0,1,1,13.53-.09Z"/><path class="cls-1" d="M143.78,137.19a6.45,6.45,0,0,1-6.41,6.76c-4.1.17-7.11-2.62-7.1-6.56a6.76,6.76,0,0,1,13.51-.2Z"/><path class="cls-1" d="M137.15,107.27a7,7,0,0,1,6.63,6.81,6.75,6.75,0,1,1-13.49-.26A6.92,6.92,0,0,1,137.15,107.27Z"/><path class="cls-1" d="M90.56,65.56a6.71,6.71,0,0,1,6.38,6.9c-.06,4.1-2.9,6.67-7.1,6.43A6.67,6.67,0,0,1,83.51,72,7.14,7.14,0,0,1,90.56,65.56Z"/><path class="cls-1" d="M50.46,72.39a6.6,6.6,0,0,1-6.69,6.54c-4.17,0-6.78-2.67-6.63-6.87a6.56,6.56,0,0,1,6.72-6.46A6.89,6.89,0,0,1,50.46,72.39Z"/></g></g></g></svg>