<svg xmlns="http://www.w3.org/2000/svg" xmlns:xlink="http://www.w3.org/1999/xlink" viewBox="0 0 448.06 254.52"><defs><style>.cls-1{fill:url(#linear-gradient);}.cls-2{fill:url(#linear-gradient-2);}.cls-3{fill:url(#linear-gradient-3);}.cls-4{fill:url(#linear-gradient-4);}.cls-5{fill:url(#linear-gradient-5);}.cls-6{fill:url(#linear-gradient-6);}.cls-7{fill:url(#linear-gradient-7);}.cls-8{fill:url(#linear-gradient-8);}.cls-9{fill:url(#linear-gradient-9);}.cls-10{fill:url(#linear-gradient-10);}.cls-11{fill:url(#linear-gradient-11);}.cls-12{fill:url(#linear-gradient-12);}.cls-13{fill:url(#linear-gradient-13);}.cls-14{fill:url(#linear-gradient-14);}.cls-15{fill:url(#linear-gradient-15);}.cls-16{fill:url(#linear-gradient-16);}.cls-17{fill:url(#linear-gradient-17);}.cls-18{fill:url(#linear-gradient-18);}.cls-19{fill:url(#linear-gradient-19);}.cls-20{fill:url(#linear-gradient-20);}.cls-21{fill:url(#linear-gradient-21);}.cls-22{fill:url(#linear-gradient-22);}.cls-23{fill:url(#linear-gradient-23);}.cls-24{fill:url(#linear-gradient-24);}.cls-25{fill:url(#linear-gradient-25);}.cls-26{fill:url(#linear-gradient-26);}.cls-27{fill:url(#linear-gradient-27);}.cls-28{fill:url(#linear-gradient-28);}.cls-29{fill:url(#linear-gradient-29);}.cls-30{fill:url(#linear-gradient-30);}.cls-31{fill:url(#linear-gradient-31);}.cls-32{fill:#ced2d8;}.cls-33{fill:#b6bac1;}.cls-34{fill:#212b33;}.cls-35{fill:#58616b;}.cls-36{fill:#929fb7;}.cls-37{fill:#7b899e;}.cls-38{fill:#384556;}.cls-39{fill:#2c3844;}.cls-40{fill:#493d84;}.cls-41{fill:#dedce5;}.cls-42{fill:#5a44aa;}.cls-43,.cls-78{fill:#fff;}.cls-44{fill:#4e6387;}.cls-45{fill:#43536b;}.cls-46{fill:#737c8c;}.cls-47{fill:#536584;}.cls-48{fill:#5d72a0;}.cls-49{fill:#8991a3;}.cls-50{fill:#757d89;}.cls-51{fill:#b2bed1;}.cls-52{fill:#cedaed;}.cls-53{fill:#c9a28d;}.cls-54{fill:#b4c0d3;}.cls-55{fill:#acb9cc;}.cls-56{fill:url(#linear-gradient-32);}.cls-57{fill:#70707f;}.cls-58{fill:#21212d;}.cls-59{fill:#272735;}.cls-60{fill:#4f5e70;}.cls-61{fill:#3a3a4c;}.cls-62{fill:#5c43b5;}.cls-63{fill:#724ed8;}.cls-64{fill:#8869f7;}.cls-65{fill:#dbb59c;}.cls-66{fill:#b28d7d;}.cls-67{fill:#754b38;}.cls-68{fill:#8e5d4a;}.cls-69{fill:#6d4637;}.cls-70{fill:#2b303a;}.cls-71{fill:#3c424f;}.cls-72{fill:#a2acbc;}.cls-73{fill:#747f89;}.cls-74{fill:#3a196d;}.cls-75{fill:#5234e2;}.cls-76{fill:#5b24a3;}.cls-77{fill:#582abc;}.cls-78{opacity:0.7;}</style><linearGradient id="linear-gradient" x1="582.77" y1="43.14" x2="756.89" y2="37.67" gradientTransform="matrix(-1, 0, 0, 1, 750.44, 0)" gradientUnits="userSpaceOnUse"><stop offset="0.02" stop-color="#6dd9ff"/><stop offset="0.31" stop-color="#4aceff"/><stop offset="0.31" stop-color="#4acdff"/><stop offset="0.36" stop-color="#45b2ff"/><stop offset="0.41" stop-color="#429fff"/><stop offset="0.46" stop-color="#4094ff"/><stop offset="0.52" stop-color="#3f90ff"/><stop offset="1" stop-color="#6d5fff"/></linearGradient><linearGradient id="linear-gradient-2" x1="582.79" y1="42.59" x2="756.86" y2="37.13" xlink:href="#linear-gradient"/><linearGradient id="linear-gradient-3" x1="582.79" y1="42.4" x2="756.85" y2="36.93" xlink:href="#linear-gradient"/><linearGradient id="linear-gradient-4" x1="582.8" y1="43.58" x2="756.89" y2="38.12" xlink:href="#linear-gradient"/><linearGradient id="linear-gradient-5" x1="582.58" y1="36.3" x2="756.66" y2="30.84" xlink:href="#linear-gradient"/><linearGradient id="linear-gradient-6" x1="583.06" y1="50.82" x2="757.17" y2="45.35" xlink:href="#linear-gradient"/><linearGradient id="linear-gradient-7" x1="583.44" y1="62.37" x2="757.53" y2="56.9" xlink:href="#linear-gradient"/><linearGradient id="linear-gradient-8" x1="584.29" y1="87.97" x2="758.36" y2="82.51" xlink:href="#linear-gradient"/><linearGradient id="linear-gradient-9" x1="583.66" y1="67.93" x2="757.66" y2="62.47" xlink:href="#linear-gradient"/><linearGradient id="linear-gradient-10" x1="582.96" y1="47" x2="756.99" y2="41.54" xlink:href="#linear-gradient"/><linearGradient id="linear-gradient-11" x1="583.17" y1="53.61" x2="757.21" y2="48.14" xlink:href="#linear-gradient"/><linearGradient id="linear-gradient-12" x1="582.58" y1="27.22" x2="755.78" y2="21.79" xlink:href="#linear-gradient"/><linearGradient id="linear-gradient-13" x1="582.59" y1="30.08" x2="756.1" y2="24.64" xlink:href="#linear-gradient"/><linearGradient id="linear-gradient-14" x1="582.64" y1="26.57" x2="755.78" y2="21.14" xlink:href="#linear-gradient"/><linearGradient id="linear-gradient-15" x1="582.73" y1="24.58" x2="755.61" y2="19.16" xlink:href="#linear-gradient"/><linearGradient id="linear-gradient-16" x1="582.7" y1="28.29" x2="755.98" y2="22.85" xlink:href="#linear-gradient"/><linearGradient id="linear-gradient-17" x1="582.77" y1="28.2" x2="755.97" y2="22.76" xlink:href="#linear-gradient"/><linearGradient id="linear-gradient-18" x1="582.69" y1="31.06" x2="756.25" y2="25.61" xlink:href="#linear-gradient"/><linearGradient id="linear-gradient-19" x1="582.84" y1="27.54" x2="755.98" y2="22.11" xlink:href="#linear-gradient"/><linearGradient id="linear-gradient-20" x1="582.94" y1="25.55" x2="755.87" y2="20.13" xlink:href="#linear-gradient"/><linearGradient id="linear-gradient-21" x1="582.87" y1="29.26" x2="756.16" y2="23.82" xlink:href="#linear-gradient"/><linearGradient id="linear-gradient-22" x1="582.81" y1="42.93" x2="756.86" y2="37.47" xlink:href="#linear-gradient"/><linearGradient id="linear-gradient-23" x1="583.62" y1="65.91" x2="757.61" y2="60.45" xlink:href="#linear-gradient"/><linearGradient id="linear-gradient-24" x1="583.83" y1="72.23" x2="757.82" y2="66.76" xlink:href="#linear-gradient"/><linearGradient id="linear-gradient-25" x1="583.54" y1="65.09" x2="757.6" y2="59.63" xlink:href="#linear-gradient"/><linearGradient id="linear-gradient-26" x1="583.11" y1="52.26" x2="757.17" y2="46.8" xlink:href="#linear-gradient"/><linearGradient id="linear-gradient-27" x1="583.98" y1="81.84" x2="758.02" y2="76.38" xlink:href="#linear-gradient"/><linearGradient id="linear-gradient-28" x1="582.36" y1="29.48" x2="756.44" y2="24.01" xlink:href="#linear-gradient"/><linearGradient id="linear-gradient-29" x1="581.96" y1="17.51" x2="756.04" y2="12.04" xlink:href="#linear-gradient"/><linearGradient id="linear-gradient-30" x1="584.75" y1="102.1" x2="758.83" y2="96.63" xlink:href="#linear-gradient"/><linearGradient id="linear-gradient-31" x1="585.34" y1="119.84" x2="759.42" y2="114.37" xlink:href="#linear-gradient"/><linearGradient id="linear-gradient-32" x1="320.08" y1="43.62" x2="436.16" y2="43.62" gradientTransform="translate(-2.23 -0.99) rotate(-0.42)" gradientUnits="userSpaceOnUse"><stop offset="0" stop-color="#6d5fff"/><stop offset="0.62" stop-color="#3f90ff"/><stop offset="0.71" stop-color="#4194ff"/><stop offset="0.79" stop-color="#489fff"/><stop offset="0.87" stop-color="#54b2ff"/><stop offset="0.95" stop-color="#65cdff"/><stop offset="0.98" stop-color="#6dd9ff"/></linearGradient></defs><g id="Layer_2" data-name="Layer 2"><g id="_1" data-name="1"><path class="cls-1" d="M3.58,43.32a13.93,13.93,0,0,0,12.89,8.3c7.66,0,13.89-5.94,13.89-13.23S24.13,25.16,16.47,25.16h0V21.49h0c9.78,0,17.75,7.58,17.75,16.9s-8,16.9-17.75,16.9A17.79,17.79,0,0,1,0,44.69Z"/><path class="cls-2" d="M24,30.66a10.6,10.6,0,0,1,3.51,11.75l-2.36-.74a8.29,8.29,0,0,0-2.75-9.19,9.29,9.29,0,0,0-12.63,1,8.27,8.27,0,0,0,1.1,12h0l-1.6,1.81h0A10.56,10.56,0,0,1,7.88,32,11.88,11.88,0,0,1,24,30.66Z"/><path class="cls-3" d="M11.66,41.29,10.32,42h0A6.47,6.47,0,0,1,13.27,33a7.13,7.13,0,0,1,9.36,2.81,6.35,6.35,0,0,1-.88,7.35l-1.14-.93a5,5,0,0,0,.69-5.76A5.58,5.58,0,0,0,14,34.31a5.06,5.06,0,0,0-2.31,7Z"/><path class="cls-4" d="M16.65,36a2.86,2.86,0,1,1-3,2.86A2.93,2.93,0,0,1,16.65,36Z"/><path class="cls-5" d="M156.38,46.83l6.74-11.1-6.74-11.11H142.91l-6.73,11.11,6.73,11.1Zm3.44-11.1-5.09,8.39H144.56l-5.08-8.39,5.08-8.39h10.17Z"/><path class="cls-6" d="M113.06,49.49l1.09,1.79-5.93,7.19H85.09v1.12h23.7l6-7.27,5,8.28h13.46L140,49.49l-6.74-11.1H119.8Zm3.62.53.14-.18-.46-.35h0l5.09-8.38h10.17l5.08,8.38-5.08,8.39H121.45Z"/><path class="cls-7" d="M142.91,72.93h13.47l6.74-11.11-6.74-11.1H142.91l-6.73,11.1.13.22-5.58,2.84H85.84V66H131l5.88-3Zm1.65-2.72-5.08-8.39,5.08-8.39h10.17l5.09,8.39-5.09,8.39Z"/><path class="cls-8" d="M118.4,75.58l-6.73,11.11,6.73,11.1h13.47l6.73-11.1-6.73-11.11ZM117.83,82l2.22-3.67h10.17l5.09,8.39-5.09,8.38H120.05L115,86.69Z"/><path class="cls-9" d="M78.76,55.64H37.26V70H78.77l.45-.36v.17l33.53-.37,5.19,6.44.92-.68-5.54-6.88-32.91.36,7.51-6Zm-.83,2.22,6.31,4.88-6.32,5.07H39.6v-10Z"/><path class="cls-10" d="M53,45.52l3.32-2.38-3.41-2.31H39.32v4.72Zm1.63-2.36-1.77,1.27H39.89V41.94H52.83Z"/><path class="cls-11" d="M52.71,47.44H39.16v4.72l13.65,0,3.32-2.37Zm-.05,1.11,1.78,1.22L52.66,51H39.72V48.55Z"/><rect class="cls-12" x="106.85" y="18.45" width="3.89" height="13.83"/><rect class="cls-13" x="101.51" y="23.84" width="3.98" height="8.44"/><rect class="cls-14" x="95.02" y="16.42" width="4.06" height="15.87"/><rect class="cls-15" x="88.77" y="12.05" width="4.15" height="20.23"/><rect class="cls-16" x="81.75" y="19.02" width="4.23" height="13.27"/><rect class="cls-17" x="75.69" y="18.45" width="3.89" height="13.83"/><rect class="cls-18" x="70.35" y="23.84" width="3.98" height="8.44"/><rect class="cls-19" x="63.87" y="16.42" width="4.06" height="15.87"/><rect class="cls-20" x="57.61" y="12.05" width="4.15" height="20.23"/><rect class="cls-21" x="50.59" y="19.02" width="4.23" height="13.27"/><path class="cls-22" d="M108.79,41a2.29,2.29,0,1,1-2.28-2.18A2.23,2.23,0,0,1,108.79,41Z"/><rect class="cls-23" x="13.65" y="59.03" width="14.45" height="4.6"/><rect class="cls-24" x="20.87" y="66.6" width="7.23" height="2.32"/><rect class="cls-25" x="43.08" y="60.6" width="32.61" height="2.24"/><rect class="cls-26" x="92.92" y="49.49" width="11.31" height="1.22"/><polygon class="cls-27" points="101.51 81.33 70.35 81.33 65.9 77.17 97.65 77.17 101.51 81.33"/><polygon class="cls-28" points="120.62 32.1 118.17 28.06 120.62 24.03 125.52 24.03 127.96 28.06 125.52 32.1 120.62 32.1"/><polygon class="cls-29" points="131.94 19.56 130.03 16.42 131.94 13.27 135.75 13.27 137.66 16.42 135.75 19.56 131.94 19.56"/><polygon class="cls-30" points="150.06 95.97 153.42 101.5 150.06 107.03 143.35 107.03 140 101.5 143.35 95.97 150.06 95.97"/><polygon class="cls-31" points="136.04 115.24 138.23 118.86 136.04 122.47 131.66 122.47 129.47 118.86 131.66 115.24 136.04 115.24"/><ellipse class="cls-32" cx="308.94" cy="226.64" rx="130.4" ry="27.88"/><path class="cls-33" d="M274.34,210.24a305.41,305.41,0,0,0,29.77,9.66,285,285,0,0,0,51.21,9.42c18.81,1.5,38-3.87,38-3.87l24.76-8.91L298.93,201.33Z"/><polygon class="cls-34" points="311.79 99.61 256.8 115.86 274.34 211.66 299.1 202.75 311.79 99.61"/><polygon class="cls-35" points="252.28 119.81 270.07 210.16 274.34 211.66 257.22 118.13 252.28 119.81"/><path class="cls-36" d="M289.44,107.41c.5,4.31,1.17,9.94,1.76,14.41a64.8,64.8,0,0,0,1.19,7.49c.6.84,3,1.89,3.79,0,.29-.67.73-3.3.1-8-.58-4.26-1.07-9.52-1.4-13.65A36.8,36.8,0,0,0,289.44,107.41Z"/><path class="cls-37" d="M288.68,100.81s.31,2.78.76,6.6a36.8,36.8,0,0,1,5.44.28c-.33-4-.51-6.88-.51-6.88Z"/><path class="cls-38" d="M232.23,85.54,245,87.3c11.79,1.64,28.56,4,36.07,5.16,12.18,1.89,18.14,5.54,16.29,9.9s-6.17.73-14,0c-3.21-.3-11.92-1.59-21.07-3-13.14-2-27.21-4.34-27.21-4.34Z"/><path class="cls-34" d="M429.81,108.19l-155.14,21,10.83,33c47.61-7.17,94.53-21.55,141.8-30.44Z"/><path class="cls-39" d="M284.29,157.79l14.64,45.41,119.16,15.2,9.21-86.6c-23.58,4.43-47.37,9.13-71.21,13.6S308.16,154.19,284.29,157.79Z"/><polygon class="cls-38" points="430.78 115.26 375.79 131.52 393.33 227.31 418.09 218.4 430.78 115.26"/><polygon class="cls-39" points="430.78 115.26 371.27 135.46 367.43 120.81 432.67 100.25 430.78 115.26"/><path class="cls-40" d="M336.5,209.26a17.12,17.12,0,0,1-4.92-1.44l-9.42,7.73A27.9,27.9,0,0,0,322,219c.8,2.86,1.46,3.36,4.62,3.7,3.49.37,11.28-.93,14.67-1.8,4.51-1.14,8.55-3.32,11.11-6.35-.89-2.08-3.84-4.8-4-7.14C344.07,208.14,338.34,209.38,336.5,209.26Z"/><path class="cls-41" d="M355,207.88l0-.06s-.51-1.33-4.81-.7c-.54.08-1.13.17-1.74.28.18,2.34,2,5.06,2.9,7.14-2,2-6.24,4.17-11.17,5.47-5.78,1.53-9.76,1.88-12.47,1.73-4.53-.24-5.53-1.88-5.46-1.77.42.67.42,3.74,3.65,4.55s6.61-.58,11.39-1.91c4.07-1.15,10.8-1.57,14.87-4.81a9.06,9.06,0,0,0,1.86-2C357.16,211.18,355.28,208.31,355,207.88Z"/><path class="cls-42" d="M362.19,214a17.47,17.47,0,0,1-4.92-1.44l-9.42,7.73s-.06,3.08,0,4.41c1.52,1.89,3.95,2.66,6.74,2.79,3.94.18,8.59-.9,12.38-1.86,4.5-1.15,8.55-3.32,11.1-6.35-.89-2.08-3.84-4.8-4-7.14C369.77,212.84,364,214.08,362.19,214Z"/><path class="cls-43" d="M380.65,212.59a.17.17,0,0,0,0-.06s-.51-1.34-4.81-.7c-.54.07-1.12.17-1.74.28.18,2.34,2,5.06,2.9,7.14-2,2-6.3,4-11.17,5.47-6.59,2-11.19,1.91-14.08,1.34a11.85,11.85,0,0,1-3.85-1.39c.42.67.42,3.75,3.65,4.55s6.61-.57,11.39-1.91c4.08-1.14,10.8-1.56,14.87-4.81a9,9,0,0,0,1.86-1.94C382.86,215.88,381,213,380.65,212.59Z"/><path class="cls-44" d="M319.75,211.45l2.36,4.4,3.65.75,6.75-1.52,4.67-5-1.51-3.5C330.87,209.6,326,211.86,319.75,211.45Z"/><path class="cls-45" d="M335.67,206.55,310,146.68l-7.41-2.05H260l-31.91,10.12-1.44,10.6,12.75,14.49L295,165.29l24.8,46.16C326,211.86,330.87,209.6,335.67,206.55Z"/><path class="cls-46" d="M262.78,181.46v15c-1.82.23-3.64.4-5.47.5V181.46Z"/><path class="cls-38" d="M229.5,222c0,3.78,2.62,6.85,5.84,6.85s5.83-3.07,5.83-6.85-2.61-6.86-5.83-6.86S229.5,218.2,229.5,222Z"/><path class="cls-38" d="M282.53,222.46c0,3.79,2.61,6.86,5.83,6.86s5.84-3.07,5.84-6.86-2.62-6.85-5.84-6.85S282.53,218.68,282.53,222.46Z"/><path class="cls-46" d="M283.32,217.09l5,7.13-5-2.13-15.94,3.8c-3.13-1-6.23-2.17-9.24-3.43Z"/><path class="cls-36" d="M262.78,225.18h-5.47V197c1.83-.1,3.65-.27,5.47-.5Z"/><path class="cls-36" d="M283.07,230.24l5.29,9-2.83.31-6.44-7-28.52-7c2.68-.9,5.35-2.61,8-3.46Z"/><path class="cls-46" d="M242.34,218l15.88,4.49c-2.67.85-4,1.81-6.71,2.72l-12.14-2.71-4,1.53v-2.91Z"/><path class="cls-36" d="M232.33,240.45l3.66-9,22.23-9c3,1.26,4.86,2.78,8,3.83l-25.93,8.21Z"/><path class="cls-38" d="M239,241.35c0,3.78-2.62,6.85-5.84,6.85s-5.83-3.07-5.83-6.85,2.61-6.85,5.83-6.85S239,237.56,239,241.35Z"/><ellipse class="cls-36" cx="232.33" cy="241.12" rx="2.1" ry="3.08"/><path class="cls-38" d="M281,240.45c0,3.78,2.61,6.85,5.83,6.85s5.83-3.07,5.83-6.85-2.61-6.85-5.83-6.85S281,236.66,281,240.45Z"/><path class="cls-36" d="M285.53,240.22c0,1.7.94,3.08,2.11,3.08s2.1-1.38,2.1-3.08-.94-3.08-2.1-3.08S285.53,238.52,285.53,240.22Z"/><path class="cls-38" d="M212.6,178.34a6.51,6.51,0,0,0,.66,4.83c1,1.61,2.9,3.2,6.74,4,9.52,1.93,54.27,7.43,60.26,7.7s9.51-.55,18.32-5.5c4.65-2.61,13-7.73,20.48-12.87,6.69-4.58,6.06-3.09,8.22-5.94,4.58-6.05,2.61-15-9.7-16.93s-47.29-4.13-50.89-3.92c-2.42.13-23.9,10-39.14,18.52C220.08,172.36,214.11,176.18,212.6,178.34Z"/><path class="cls-39" d="M215.74,173.55a5.35,5.35,0,0,0,.57,4.07c.83,1.36,2.52,2.7,5.85,3.35,8.26,1.63,47.09,6.27,52.29,6.5s8.25-.46,15.9-4.64c4-2.21,11.26-6.53,17.77-10.86,5.8-3.87,11-7.76,12.91-10.17,4-5.1-3.52-7.51-14.2-9.14s-41-3.48-44.16-3.3c-2.1.11-20.73,8.46-34,15.62C222.23,168.49,217.05,171.72,215.74,173.55Z"/><path class="cls-47" d="M360.21,209.52l-25.27-56.84-7.4-2.05H285l-62.48,10.24L228.12,174l42,10,49.77-12.71,24.75,46.09C351,217.61,355.42,213.35,360.21,209.52Z"/><path class="cls-48" d="M344.63,217.38l2.41,4.47,4.43.91,6.95-2.2,2.82-3.17.95-3.42-2-4.45C355.42,213.35,351,217.61,344.63,217.38Z"/><polygon class="cls-49" points="333.61 82.41 226.26 109.92 351.12 128.05 448.06 90.72 333.61 82.41"/><polygon class="cls-50" points="384.97 100.89 347.77 96.16 366 84.95 408.63 88.01 384.97 100.89"/><polygon class="cls-51" points="226.26 109.92 229.39 116.78 351.12 135.46 351.12 128.05 226.26 109.92"/><polygon class="cls-52" points="448.06 97.56 448.06 90.72 351.12 128.05 351.12 135.46 448.06 97.56"/><path class="cls-52" d="M256.08,109.18c14.34,2.85,67.61,10,67.61,10,16.61-4.47,39.37-13.39,39.37-13.39l.86-3.46s-53.75-6.88-72-9.49C291.89,92.84,256.74,108.37,256.08,109.18Z"/><path class="cls-38" d="M256.08,109.18c11.18,2.19,60.61,8.59,67.56,9.08,2.24-.61,40.28-15.93,40.28-15.93s-.26,3.5-.3,3.86l-38.38,14.87-69.16-9.16Z"/><path class="cls-38" d="M270.13,107l-3.26-.41,3.16-2.07,3.33.42Z"/><path class="cls-38" d="M273.91,107.5l-3.25-.41,3.24-2,3.32.42Z"/><path class="cls-38" d="M277.7,108l-3.26-.41c1.11-.68,2.22-1.36,3.32-2l3.33.42Z"/><path class="cls-38" d="M281.48,108.45l-3.25-.41,3.4-2,3.33.42Z"/><path class="cls-38" d="M285.27,108.93l-3.26-.41,3.49-2,3.32.42Z"/><path class="cls-38" d="M289.06,109.4,285.8,109l3.57-2,3.32.42Z"/><path class="cls-38" d="M307.42,99.51l-3.25-.41,3.65-2,3.32.42Z"/><path class="cls-38" d="M311.21,100,308,99.58l3.73-2L315,98Z"/><path class="cls-38" d="M315,100.46l-3.25-.41,3.81-2,3.33.42Z"/><path class="cls-38" d="M318.78,100.94l-3.25-.41,3.89-2,3.32.41Z"/><path class="cls-38" d="M327.1,102.07l-3.25-.41,4-2,3.33.42Z"/><path class="cls-38" d="M323.54,99.29l-4.14,1.94,3.26.41,4.21-1.93Z"/><path class="cls-38" d="M319.35,113.21l-3.26-.42,4.22-1.93,3.33.42Z"/><path class="cls-38" d="M323.13,113.68l-3.25-.41,4.3-1.92,3.33.42Z"/><path class="cls-38" d="M275.8,104.69l-3.34-.42c1.06-.69,2.12-1.38,3.19-2.06l3.41.43Z"/><path class="cls-38" d="M279.69,105.18l-3.35-.42,3.28-2.05,3.41.42Z"/><path class="cls-38" d="M283.57,105.67l-3.34-.43,3.36-2,3.41.43Z"/><path class="cls-38" d="M287.46,106.15l-3.34-.42,3.43-2,3.42.43Z"/><path class="cls-38" d="M291.35,106.64l-3.35-.42,3.52-2,3.42.43Z"/><path class="cls-38" d="M295.23,107.13l-3.34-.42,3.6-2,3.41.43Z"/><path class="cls-38" d="M299.12,107.62l-3.34-.42,3.68-2,3.41.42Z"/><path class="cls-38" d="M303,108.11l-3.35-.43,3.77-2,3.41.43C305.57,106.79,304.29,107.45,303,108.11Z"/><path class="cls-38" d="M306.9,108.59l-3.35-.42,3.85-2,3.41.43Z"/><path class="cls-38" d="M310.78,109.08l-3.34-.42,3.93-2,3.41.43Z"/><path class="cls-38" d="M314.67,109.57l-3.34-.42,4-2,3.41.43Z"/><path class="cls-38" d="M318.56,110.06l-3.34-.43,4.09-1.94,3.41.43Z"/><path class="cls-38" d="M322.45,110.54l-3.35-.42,4.18-1.93,3.41.43Z"/><path class="cls-38" d="M327.25,108.68l3.41.43L326.33,111l-3.34-.42Z"/><path class="cls-38" d="M331.22,109.18l5.65.71-4.45,1.91-5.54-.7Z"/><path class="cls-38" d="M281,102.34l-3.43-.43,3.22-2.06,3.5.44Z"/><path class="cls-38" d="M285,102.84l-3.43-.43,3.3-2,3.5.44Z"/><path class="cls-38" d="M289,103.34l-3.43-.43,3.38-2,3.5.44Z"/><path class="cls-38" d="M293,103.84l-3.43-.43,3.47-2,3.5.44Z"/><path class="cls-38" d="M297,104.34l-3.43-.43,3.55-2,3.5.44Z"/><path class="cls-38" d="M300.94,104.84l-3.43-.43,3.62-2,3.5.45Z"/><path class="cls-38" d="M304.92,105.34l-3.43-.43,3.71-2,3.5.44Z"/><path class="cls-38" d="M308.91,105.84l-3.43-.43,3.79-2,3.5.44Z"/><path class="cls-38" d="M312.9,106.34l-3.43-.43,3.87-2,3.5.44Z"/><path class="cls-38" d="M316.88,106.85l-3.42-.44,4-2,3.5.44Z"/><path class="cls-38" d="M320.87,107.35l-3.43-.44,4-2,3.5.44Z"/><path class="cls-38" d="M324.86,107.85l-3.43-.44,4.12-1.94,3.5.44Z"/><path class="cls-38" d="M328.85,108.35l-3.43-.44,4.2-1.93,3.5.44Z"/><path class="cls-38" d="M333.69,106.49l3.5.44-4.36,1.92-3.42-.43Z"/><path class="cls-38" d="M337.76,107l4.54.57-4.45,1.91-4.46-.56Z"/><path class="cls-38" d="M285.79,100l-3.52-.44,3.24-2.06,3.58.45Z"/><path class="cls-38" d="M289.87,100.46l-3.51-.44,3.32-2,3.58.45Z"/><path class="cls-38" d="M294,101l-3.51-.44,3.39-2,3.59.45Z"/><path class="cls-38" d="M298.05,101.49l-3.52-.45L298,99l3.58.45Z"/><path class="cls-38" d="M302.13,102l-3.51-.44,3.56-2,3.58.45Z"/><path class="cls-38" d="M306.22,102.51l-3.52-.44,3.65-2,3.58.45Z"/><path class="cls-38" d="M310.3,103l-3.51-.45,3.72-2,3.59.45Z"/><path class="cls-38" d="M314.39,103.54l-3.51-.44,3.8-2,3.59.45Z"/><path class="cls-38" d="M318.48,104.05l-3.52-.44,3.89-2,3.58.46Z"/><path class="cls-38" d="M322.56,104.56l-3.51-.44,4-2,3.58.45Z"/><path class="cls-38" d="M326.65,105.08l-3.52-.45,4.06-1.95,3.58.45Z"/><path class="cls-38" d="M330.74,105.59l-3.52-.44,4.14-1.94,3.58.45Z"/><path class="cls-38" d="M334.82,106.1l-3.51-.44,4.21-1.93,3.59.45Z"/><path class="cls-38" d="M339.69,104.25l3.59.45-4.37,1.92-3.51-.45Z"/><path class="cls-38" d="M343.86,104.78l3.86.48-4.46,1.9-3.78-.47Z"/><path class="cls-38" d="M290.08,95l3.67.46-3.32,2.05-3.6-.46Z"/><path class="cls-38" d="M294.35,95.53,298,96c-1.14.67-2.27,1.35-3.4,2l-3.6-.45Z"/><path class="cls-38" d="M298.61,96.07l3.67.46-3.47,2-3.61-.46Z"/><path class="cls-38" d="M302.88,96.61l3.67.46-3.56,2-3.6-.45Z"/><path class="cls-38" d="M293.67,107.64l24.58,3.09-4.05,2-24.11-3Z"/><path class="cls-38" d="M332.76,100.36l3.67.46-4.13,1.94-3.6-.45Z"/><path class="cls-38" d="M337,100.89l3.67.47-4.22,1.93-3.6-.46Z"/><path class="cls-38" d="M341.3,101.43l3.67.46-4.3,1.92-3.6-.45Z"/><path class="cls-38" d="M345.57,102l3.67.47-4.38,1.91-3.6-.46Z"/><path class="cls-38" d="M349.84,102.5l3.35.42-4.45,1.91-3.29-.42Z"/><path class="cls-38" d="M323.64,113.74l4.39-1.91,3.32.42-4.45,1.9Z"/><path class="cls-53" d="M298.9,96.65l-9.16-2.11-14.12,3-33.05-2.92-.51-1-9.9-18.1C231.09,76.56,216.57,83,212.26,86c5.82,6.28,15.3,17.62,21.21,23.75a2.18,2.18,0,0,0,2.66.72L275.62,108h11.85l7.78-3.43L300.8,108l3.05-.73Z"/><polygon class="cls-54" points="397.35 90.79 383.7 98.14 348.21 93.55 361.43 88.01 397.35 90.79"/><polygon class="cls-52" points="397.35 91.96 383.98 100.49 347.77 96.16 348.21 93.55 383.7 98.14 397.35 90.79 397.35 91.96"/><polygon class="cls-54" points="378.51 59.8 380.52 94.42 375.01 95.98 375.01 54.44 378.51 59.8"/><path class="cls-52" d="M362.67,94.42,375,96V77.65c-3.1-.87-6.14-2-9.58-2.21Z"/><path class="cls-55" d="M368.73,52.71l-3.3,22.73c3.44.23,6.48,1.34,9.58,2.21V54.44Z"/><polygon class="cls-56" points="434.04 9.38 320.14 0.99 318.39 69.48 432.28 78.67 434.04 9.38"/><path class="cls-39" d="M433.22,79.67,317.41,70.33,319.21,0,435,8.52Zm-113.84-11,112,9,1.7-67.44L321.08,2Z"/><path class="cls-57" d="M350.23,118.06c-.9.39-.92,1.21-1.82,1.6-2.74,2.41-6.7.67-8.86-1.86l-.09-.16a14,14,0,0,1,1.69-2.42s4.63-4.57,9.23-5.26c5-.75,8.15-.39,10.28.51C363.23,116.3,354.12,116.18,350.23,118.06Z"/><path class="cls-58" d="M362.47,111.53a7,7,0,0,1,1.46,1.49c1.57,2.13,3,5.07-2.47,5.91a7.86,7.86,0,0,0-2.28.7A13.4,13.4,0,0,0,362.47,111.53Z"/><path class="cls-59" d="M345,124.35c-5.71-.13-6.82-2.25-6.43-4.42a7.68,7.68,0,0,1,.87-2.29l.09.16c2.16,2.53,6.12,4.27,8.86,1.86.9-.39.92-1.21,1.82-1.6,3.89-1.88,13-1.76,10.43-7.59a8.15,8.15,0,0,1,1.81,1.06,13.4,13.4,0,0,1-3.29,8.1c-2.29,1.12-3.46,3.1-7.36,4.11A25,25,0,0,1,345,124.35Z"/><path class="cls-60" d="M360.66,110.47s-2,.41-4.41,1.15c-2.68.81-5.92,2-7.68,3.52-3.35,2.86-5.37,4.55-6.65,3.48s1.34-5.6,4.06-7a21.31,21.31,0,0,1,10.9-2A15.17,15.17,0,0,1,360.66,110.47Z"/><path class="cls-61" d="M355.22,109.71a10.11,10.11,0,0,0-6.14,2.9l-.47.2-.67-.13a7.13,7.13,0,0,1,3-3.31,4.8,4.8,0,0,1,4.44.12S355.5,109.52,355.22,109.71Z"/><path class="cls-59" d="M355.61,109.73a14.82,14.82,0,0,0-4.18,1.4,10.3,10.3,0,0,0-2.46,1.58,1.16,1.16,0,0,1-.36.1,7.13,7.13,0,0,1,3-3.31,4.83,4.83,0,0,1,4.44.12Z"/><path class="cls-62" d="M264.71,125.19c-1.82-9.54-2-19.83-8.36-27.57-3.25-1.81-6.45-3.7-9.64-5.62-9.27-8.58-18.85-16.67-28.47-25.1l-4.39,1.84s-6,12.3-5.5,13c1.1,1.49,12.18,43.59,12.18,43.59L224,164.45l15.55,5.3,21.29,3.53,13.2-4.55C270.69,154.51,267.47,140.29,264.71,125.19Z"/><path class="cls-63" d="M284.12,131.8l-5.07-44c-11.1-5.86-22.61-11.24-32.2-19.37-4-1-18.73-5.65-18.73-5.65l-9.88,4.16c9.62,8.43,19.2,16.52,28.47,25.1,3.19,1.92,6.39,3.81,9.64,5.62,6.31,7.74,6.54,18,8.36,27.57,2.76,15.1,6,29.32,9.35,43.54l13.48-4.64Z"/><path class="cls-64" d="M278.23,80.59s-29.4-12-30.39-12a6.47,6.47,0,0,1-1-.22c9.59,8.13,21.1,13.51,32.2,19.37Z"/><path class="cls-53" d="M297.26,116.43a110.05,110.05,0,0,0-14.21-22.52c-4.45,3.92-9.44,8-12.92,13.12l27,25,39.47-12.64-.89-4.45C322.8,114.77,310,114.54,297.26,116.43Z"/><path class="cls-65" d="M352.63,104.94l-7.6-.78-10.15,6.57-34.81,0L285.89,92a12.35,12.35,0,0,0-2.55,2.34c4.62,7,9.79,13,13.92,22.08,12.78-1.89,26,.78,38.95,1l.4,2,9.29-1.68,5.42-4.47,5,2.58,2.25-1.15Z"/><path class="cls-63" d="M270.67,79.32l-9,8.23s-2.86,6.62-1.33,9.23,10.32,11.1,10.32,11.1l3.64-5,1.56-1a141,141,0,0,0-4.11-22.41Z"/><path class="cls-64" d="M278.23,80.59l-6.47-1.08a141,141,0,0,1,4.11,22.41L286.81,95Z"/><path class="cls-53" d="M228.12,64.85,242,69.54l9.6,1.62L251,66.88l-1.17-5.95c-3.89-.15-8.63-5.25-8.63-5.25s-9.63.87-13-1.52Z"/><path class="cls-66" d="M226.68,47.67l1.75,7.3c3.24,2.26,15.37,8,15.37,8s3.8,1.82,6.46-.41l-2.41-12.23Z"/><path class="cls-65" d="M257.79,35.91l1.11-9.59-.31-.56a36.16,36.16,0,0,1-7.93,3.46c1.51,6.46,5.47,12.33,7.57,18.51l.62-3.89Z"/><path class="cls-53" d="M258.59,25.76l-6-10.9-25.51.91-3.14,9.85-1.44,4.53,30.64,33.48,3-2.3,2.15-13.6c-2.05-6-5.88-11.8-7.46-18.11A50.86,50.86,0,0,0,258.59,25.76Zm-14,39.11c.08,0,.14.1.22.15Zm-.9-.69a0,0,0,0,1,0,0A0,0,0,0,0,243.72,64.18Z"/><path class="cls-67" d="M248.14,19.47a6.5,6.5,0,0,0-1.53-.11C246.92,19.79,247.31,20,248.14,19.47Z"/><path class="cls-68" d="M246.61,19.36a6.5,6.5,0,0,1,1.53.11c-.83.54-1.22.32-1.53-.11-3.14.09-6.54,1.72-8.83-.87,1.61,5.2,7.84,6.22,12.76,7.86C256,25,262.7,22.68,262.7,22.68L257.07,22l7.37-2.89s-3.68-2.6-7.45-4.87c-4.08,1.24-8.19,2.55-12.5,3.47C245.84,17.52,246.13,18.7,246.61,19.36Z"/><path class="cls-67" d="M233.49,34.05h1A.7.7,0,0,0,233.49,34.05Z"/><path class="cls-67" d="M259.9,62.66s-.76-1.9-1.45-3.43a15.73,15.73,0,0,1-.37-4.57c0-3.82.4-8.52.4-8.52s-2.8,6.58-2.77,6.92c-1.38.36-4.7-3.13-5.64-5.5-2.1.41-4.45.74-6-.89a8.89,8.89,0,0,1-2-6.15c.46-2.73,4.68-2.58,6.78-1.4,1.22.68,1.93,1.78,3.12,2.44.68.38,1.53.52,2.17.89.32-2.41-1-5.5-2.21-7.54-1-1.69-3.07-5-5.25-5.34,0,.17-.15.44-.17.5-.36-1.88,1.56-2.91,2.92-3.78-1.11-1.41-5-1.81-6.81-2.7a8.78,8.78,0,0,1-4.8-5.1c2.29,2.59,5.69,1,8.83.87-.48-.66-.77-1.84-2.12-1.68,4.31-.92,8.42-2.23,12.5-3.47a43.24,43.24,0,0,0-4.86-2.6c-4.53-2-19.46-1.36-24-.54S222.49,15,222.49,15l-1.27,5.73-3.49,2.13a20.21,20.21,0,0,0-1.53,3.3c7.17,4.56,16.72,2.31,23.54,7.88h-5.26c.71.49-.44,1.94.27,1.27,0,7.23,1.73,12.77,1.09,17.56a2.9,2.9,0,0,1,.79-1.32,3.83,3.83,0,0,1,6.1.9,72.43,72.43,0,0,1,2.05,7.15c.87,3.35,5.88,5.69,5.88,5.69l7.5.53Z"/><path class="cls-69" d="M234.48,34.05h-1a.7.7,0,0,1,1,0h5.26c-6.82-5.57-16.37-3.32-23.54-7.88-1.34,3.78-1.45,8,1,11.59,2,2.89,4.86,6,5.63,9.39.57,2.48,4.9,9.47,4.9,9.47s4.58.25,5.68.43c1.93.3,1.78-2.32,2.4-4.17A134.87,134.87,0,0,0,236.61,35C235.9,35.71,235.19,34.54,234.48,34.05Z"/><path class="cls-70" d="M251.28,33.81a11.34,11.34,0,0,1,3,7c.47,5-1.9,9.36-5.29,9.65a5.36,5.36,0,0,1-4.43-2.15c1.15-.49,2.27-1,3.31-1.56C252,43.79,251.8,38.57,251.28,33.81Z"/><path class="cls-71" d="M247.3,32.16a5.11,5.11,0,0,1,4,1.65c.52,4.76.69,10-3.42,12.9-1,.54-2.16,1.07-3.31,1.56A11.63,11.63,0,0,1,242,41.8C241.54,36.76,243.91,32.44,247.3,32.16Z"/><path class="cls-72" d="M247.26,41.36c.34,3.62,1.93,6.44,3.57,6.3s2.68-3.18,2.35-6.79-1.93-6.44-3.57-6.31S246.93,37.74,247.26,41.36Z"/><path class="cls-72" d="M232.36,10.7s8.29.79,12.35,6.94S251.11,36,251.11,36l-2.4,3s-4.12-17.43-8.93-22.61-12-5.47-12-5.47Z"/><path class="cls-46" d="M237.34,222.46c0,1.86-.94,3.37-2.09,3.37s-2.1-1.51-2.1-3.37.94-3.37,2.1-3.37S237.34,220.6,237.34,222.46Z"/><path class="cls-46" d="M289.73,223.27c0,1.86-.94,3.37-2.09,3.37s-2.1-1.51-2.1-3.37.94-3.37,2.1-3.37S289.73,221.41,289.73,223.27Z"/><path class="cls-39" d="M272.29,119.84s-6.47-31.6-7.19-38.61-6.71-15.81-32.33-18.12c-12.23-1.1-24.75-.28-34.22,2.6-10.38,3.16-17.09,8.79-15.77,17.08C185.32,98.64,213,179.46,213,179.46l69,8.9Z"/><path class="cls-73" d="M265.38,121.91s-6.47-31.6-7.19-38.61-6.71-15.81-32.33-18.12A101.64,101.64,0,0,0,196.7,66.5c.76-.28,1.53-.54,2.34-.79,9.47-2.88,22-3.7,34.22-2.6,25.62,2.31,31.6,11.12,32.33,18.13s7.19,38.61,7.19,38.61L282,188.36h-7.46Z"/><path class="cls-39" d="M241.06,56.57s2.75,9.13.08,10.36a39.74,39.74,0,0,1-13.59,3.45c-14.15.88-34.34-.61-35.84-1.56-2.25-1.42-4.92-12-3.83-15.29s6-5.44,14.33-5.51,28.34-.37,31.6-.18a6.2,6.2,0,0,1,4.34,1.93C239.42,51.1,240.43,53.25,241.06,56.57Z"/><path class="cls-73" d="M236.44,59.25c-.63-3.32-1.64-5.47-2.91-6.81a6.18,6.18,0,0,0-4.34-1.93c-3.25-.19-23.32.12-31.6.19a30.33,30.33,0,0,0-8.72,1.14c2-2.33,6.57-3.77,13.34-3.82,8.28-.06,28.34-.37,31.6-.18a6.23,6.23,0,0,1,4.34,1.92c1.27,1.34,2.28,3.49,2.91,6.81,0,0,2.75,9.13.08,10.36-.39.18-1.29,2-3.16,2.16C238.35,66,236.44,59.25,236.44,59.25Z"/><path class="cls-36" d="M306.07,149.34,307,166l.66,12.46s.35,2.24,1.57,2.38,2.39.28,2.59-3.5c.08-1.59-.07-7.09-.26-12.91-.27-7.94-.63-16.48-.63-16.48Z"/><path class="cls-38" d="M277.58,153.68s7.91-2.41,16.42-5.66,17.2-6.51,18-6.51c1.57,0,6.48,1.57,4,5.75-1,1.74-7.75,4.7-15.24,7.55-10.45,4-22.39,7.76-22.39,7.76Z"/><path class="cls-34" d="M193.76,72.12s6.59,3.67,21.21,4.37,21.27-4.37,21.27-4.37S232.64,79.61,215,80,193.76,72.12,193.76,72.12Z"/><path class="cls-34" d="M202.22,90.7s-3.56,2.24-1,16.15,19.59,66.63,19.59,66.63l11.56,1.32L213.44,88.57S207.08,85.17,202.22,90.7Z"/><path class="cls-34" d="M231,90.46l18,86.29,13.5,2.23s-11-78.09-15.76-85a10.35,10.35,0,0,0-7.88-4.26A22.16,22.16,0,0,0,231,90.46Z"/><polygon class="cls-35" points="371.27 135.46 389.06 225.82 393.33 227.31 376.21 133.78 371.27 135.46"/><path class="cls-43" d="M361.18,24A5.88,5.88,0,0,0,366,27.51c2.94.31,5.41-1.55,5.5-4.14s-2.23-5-5.17-5.27h0l.05-1.3h0c3.76.39,6.72,3.41,6.61,6.73s-3.28,5.68-7,5.29a7.51,7.51,0,0,1-6.19-4.43Z"/><path class="cls-43" d="M369.19,20.37a3.78,3.78,0,0,1,1.21,4.31l-.9-.35a3,3,0,0,0-.94-3.38,3.76,3.76,0,0,0-4.87-.14,2.84,2.84,0,0,0,.27,4.32h0l-.64.58h0a3.62,3.62,0,0,1-.34-5.52A4.79,4.79,0,0,1,369.19,20.37Z"/><path class="cls-43" d="M364.31,23.65l-.52.18h0a2.11,2.11,0,0,1,1.24-3,3,3,0,0,1,3.57,1.37,2.09,2.09,0,0,1-.43,2.58l-.43-.38a1.63,1.63,0,0,0,.34-2,2.36,2.36,0,0,0-2.79-1.07,1.66,1.66,0,0,0-1,2.39Z"/><path class="cls-43" d="M366.3,22a1.19,1.19,0,0,1,1.11,1.14,1,1,0,0,1-1.19.89,1.18,1.18,0,0,1-1.11-1.13A1,1,0,0,1,366.3,22Z"/><path class="cls-43" d="M419.85,31.46l2.73-3.68-2.45-4.23L415,23l-2.72,3.68,2.44,4.22Zm1.46-3.82-2.06,2.78L415.34,30l-1.85-3.19L415.55,24l3.91.42Z"/><path class="cls-43" d="M403.17,30.65l.39.68-2.36,2.32-8.89-.93v.4l9.1,1,2.4-2.34,1.82,3.14,5.18.55,2.72-3.68-2.45-4.22L405.9,27Zm1.38.33.06-.05-.17-.14h0L406.5,28l3.91.41,1.84,3.19-2.05,2.77L406.29,34Z"/><path class="cls-43" d="M414.35,40.19l5.17.55,2.73-3.68-2.45-4.22-5.17-.55L411.9,36l.05.09-2.18.78L392.52,35v.4l17.35,1.82,2.3-.83Zm.66-.9-1.84-3.19,2.05-2.77,3.91.41L421,36.92l-2.06,2.78Z"/><path class="cls-43" d="M404.89,40.15l-2.72,3.68,2.45,4.22,5.17.54,2.73-3.68-2.45-4.22Zm-.3,2.25.9-1.22,3.91.41,1.85,3.19-2.06,2.78-3.91-.41L403.43,44Z"/><path class="cls-43" d="M389.91,31.46,374,29.78l-.18,5.13,15.95,1.67.17-.11v.06l12.89,1.22,1.91,2.5.37-.2-2-2.67-12.66-1.2,3-1.84Zm-.34.75,2.36,2-2.49,1.55-14.72-1.54.12-3.54Z"/><path class="cls-43" d="M380.13,26.82l1.31-.71-1.29-1L375,24.6l-.06,1.68Zm.66-.78-.7.39-5-.53,0-.88,5,.52Z"/><path class="cls-43" d="M380,27.49l-5.21-.55-.06,1.68,5.25.54,1.3-.71Zm0,.39.66.51-.7.38-5-.52,0-.89Z"/><polygon class="cls-43" points="401.17 19.36 402.67 19.52 402.49 24.44 401 24.28 401.17 19.36"/><polygon class="cls-43" points="399.06 21.06 400.58 21.23 400.48 24.23 398.95 24.07 399.06 21.06"/><polygon class="cls-43" points="396.66 18.16 398.22 18.32 398.02 23.97 396.46 23.8 396.66 18.16"/><polygon class="cls-43" points="394.31 16.36 395.9 16.52 395.65 23.72 394.06 23.55 394.31 16.36"/><polygon class="cls-43" points="391.52 18.55 393.15 18.72 392.98 23.44 391.36 23.27 391.52 18.55"/><polygon class="cls-43" points="389.2 18.11 390.69 18.26 390.52 23.18 389.03 23.02 389.2 18.11"/><polygon class="cls-43" points="387.08 19.81 388.61 19.97 388.51 22.97 386.98 22.81 387.08 19.81"/><polygon class="cls-43" points="384.68 16.9 386.24 17.07 386.05 22.71 384.49 22.55 384.68 16.9"/><polygon class="cls-43" points="382.34 15.1 383.93 15.27 383.68 22.46 382.08 22.3 382.34 15.1"/><polygon class="cls-43" points="379.55 17.3 381.18 17.46 381.01 22.18 379.38 22.01 379.55 17.3"/><path class="cls-43" d="M401.64,27.47a.78.78,0,0,1-.91.68.91.91,0,0,1-.85-.87.77.77,0,0,1,.91-.68A.91.91,0,0,1,401.64,27.47Z"/><polygon class="cls-43" points="370.35 32.26 364.8 31.67 364.85 30.04 370.4 30.62 370.35 32.26"/><polygon class="cls-43" points="370.28 34.14 367.5 33.85 367.53 33.02 370.31 33.31 370.28 34.14"/><polygon class="cls-43" points="376.14 31.78 388.67 33.1 388.64 33.9 376.11 32.58 376.14 31.78"/><polygon class="cls-43" points="399.76 30.73 395.42 30.28 395.43 29.84 399.78 30.3 399.76 30.73"/><polygon class="cls-43" points="398.33 41.51 386.36 40.26 384.7 38.6 396.9 39.88 398.33 41.51"/><polygon class="cls-43" points="406.3 24.77 405.41 23.24 406.4 21.9 408.28 22.1 409.17 23.63 408.18 24.97 406.3 24.77"/><polygon class="cls-43" points="410.8 20.77 410.11 19.57 410.88 18.53 412.35 18.68 413.04 19.88 412.27 20.92 410.8 20.77"/><polygon class="cls-43" points="416.81 48.68 418.02 50.78 416.66 52.62 414.09 52.34 412.87 50.24 414.23 48.41 416.81 48.68"/><polygon class="cls-43" points="411.17 54.97 411.97 56.34 411.08 57.54 409.4 57.36 408.6 55.99 409.49 54.79 411.17 54.97"/><path class="cls-74" d="M350.28,39.1l6,8.42L350.63,50s-4.5.84-5.29.46S338,48.36,338,48.36l-2-1.87,4.16-10.17Z"/><polygon class="cls-74" points="355.09 46.53 357.93 49.43 359.58 48.38 360.83 50.14 357.09 63.12 356.75 66.24 361.4 71.02 352.5 70.26 353.56 54.45 347.85 46.5 355.09 46.53"/><path class="cls-74" d="M345.49,47.93s-2.46,8.68-2.18,8.34-3.93,12.87-3.93,12.87l-4.05-.35s.2-2.06.43-4.26a47.35,47.35,0,0,1,.69-5.21c.24-.19,2-5.16,2-5.16L338.37,46Z"/><path class="cls-75" d="M348.94,20.85l.49-.08,1.07-2.41,1.95-3,2.87-.28c-1.3,3.63-2.82,7.21-4.08,10.85A14.71,14.71,0,0,1,348.94,20.85Z"/><path class="cls-75" d="M349.3,27.64c-3.28-1.73-7.13-2.15-10.75-3.17h0l2.58-.76-.71-2.29h3.93C345.73,23.67,347.94,25.46,349.3,27.64Z"/><path class="cls-74" d="M355.19,35l.16.42c.15.43-.91.88-.91.88L358,38.42l1.94-1.24L358.46,37l0-.65,2.1.25-.7,1.8-2.7,2.71L352,39.22c1.12-1.64,2.33-3.22,3.48-4.83Z"/><path class="cls-76" d="M351.1,39.89l-2.05,1.32c2.32-6,5.17-11.61,9.47-16.28l1.25-.14L357.44,27a6.5,6.5,0,0,1-.2,3.37c-.44,1.21-1.32,3.1-1.77,4.05-1.15,1.61-2.36,3.19-3.48,4.83l-.82-.3Z"/><path class="cls-77" d="M336,31.21l-1.13-3.55,3.55-1.32.11-1.87c3.62,1,7.47,1.44,10.75,3.17-1.36-2.18-3.57-4-4.95-6.23h.81l.16-2.77L346.88,21h1.35l.71-.11a14.71,14.71,0,0,0,2.3,5.12c1.26-3.64,2.78-7.22,4.08-10.85l1.23-.13,2.08,1.81-.73,3.76L356,23.94l1.2,1.12,1.3-.13c-4.3,4.67-7.15,10.32-9.47,16.28l-1.91,1.24-8.51-5,2.71-2.13.3-5.13Z"/><polygon class="cls-74" points="357.06 16.28 356.69 12.51 354.55 11.38 351.73 12.68 349.51 14.51 348.57 18.13 345.99 19.63 348.16 19.44 350.79 18.4 352.74 14.22 355.63 16.36 357.06 16.28"/><polygon class="cls-77" points="357.32 17.54 360.49 15.46 357.06 16.28 358.32 13.46 356.1 15.3 356.19 13.72 354.64 15.66 357.32 17.54"/><polygon class="cls-74" points="357.9 20.56 356.23 20.36 354.45 18.84 354.08 19.45 355.28 20.65 354.68 22.14 355.51 22.58 356.18 21.25 357.24 21.14 357.9 20.56"/><polygon class="cls-74" points="349.43 20.77 350.84 24.73 353.58 24.82 355.74 24.2 354.87 25.21 352.53 25.69 350.66 25.46 349.8 23.98 348.76 20.88 349.43 20.77"/><polygon class="cls-77" points="344.9 42.18 338.79 38.73 334.67 46.19 341.89 47.88 344.9 42.18"/><polygon class="cls-77" points="351.54 40.26 348.08 42.56 351.77 49.52 356.35 46.91 351.54 40.26"/><path class="cls-75" d="M334.78,20.1s.51,1.78,1,3a82.79,82.79,0,0,0-9.48,10.37Z"/><path class="cls-77" d="M335.77,23.15c.25.68.5,1.22.65,1.23a4.67,4.67,0,0,1,1.07.74c-3,4.25-5.68,8.63-8.37,13.17a32.37,32.37,0,0,0-2.78,5.94l-.68.1-.36-9.24,1-1.57A82.79,82.79,0,0,1,335.77,23.15Z"/><path class="cls-75" d="M340,32.52c-.4.62-.82,1.22-1.24,1.83-2.42-.1-4.83-.1-7.24-.05l1.23-2C335.16,32.45,337.59,32.49,340,32.52Z"/><path class="cls-76" d="M331.14,43.45c-1.9.36-3.82.64-4.8.78a32.37,32.37,0,0,1,2.78-5.94c.79-1.34,1.6-2.67,2.4-4,2.41,0,4.82,0,7.24.05A74.07,74.07,0,0,1,331.14,43.45Z"/><path class="cls-76" d="M332.75,32.31c1.52-2.44,3.09-4.84,4.74-7.19C338.56,26,340,27.3,340,27.3l2.68.68c-.83,1.55-1.73,3.07-2.69,4.54C337.59,32.49,335.16,32.45,332.75,32.31Z"/><path class="cls-74" d="M336.2,42c-.57.5-2.8,1-5.06,1.44a74.07,74.07,0,0,0,7.62-9.1c1.36,0,2.73.13,4.11.25C340,37.94,336.85,41.46,336.2,42Z"/><path class="cls-75" d="M344.61,32.6l-1.74,2c-1.38-.12-2.75-.2-4.11-.25.42-.61.84-1.21,1.24-1.83C341.55,32.54,343.09,32.56,344.61,32.6Z"/><path class="cls-74" d="M344.32,28.39l4-.09-3.71,4.3c-1.52,0-3.06-.06-4.61-.08,1-1.47,1.86-3,2.69-4.54Z"/><polygon class="cls-76" points="359.74 38 360 38.15 362.37 39.38 362.32 40.18 361.39 40.65 361.64 41.47 360.88 41.68 360.84 42.19 360.24 42.63 359.75 42.93 356.48 40.85 359.74 38"/><polygon class="cls-74" points="363.16 37.36 365.83 39.4 365.31 40.68 359.74 38 357.46 36.68 358.29 35.57 361.29 35.93 363.16 37.36"/><polygon class="cls-75" points="374.46 15.85 376.94 14.69 376.78 17.41 363.16 37.36 361.29 35.93 374.46 15.85"/><polygon class="cls-74" points="356.96 45.12 359.33 41.67 358.29 41.07 356.59 42.97 355.52 42.43 355.89 44.07 356.96 45.12"/><polygon class="cls-77" points="376.94 14.69 361.99 36.47 363.16 37.36 376.78 17.41 376.94 14.69"/><path class="cls-75" d="M357.93,49.43l1.65-1,1.25,1.76-1.53,5.31c-.75-1.66-1.51-3.31-2.3-5Z"/><path class="cls-77" d="M357,50.5c.79,1.64,1.55,3.29,2.3,5l-1.11,3.86-4.63-4.86Z"/><path class="cls-75" d="M342.46,55l1,2.24-1,2.79c-1-1.64-2-3.27-3-4.89Z"/><path class="cls-77" d="M338.19,55.21l1.27-.07c1,1.62,2,3.25,3,4.89l-.57,1.63L340,63.36l-3-5.22Z"/><polygon class="cls-78" points="370.51 47.88 370.22 55.45 396.35 57.52 399.59 54.44 395.65 50.33 370.51 47.88"/><polygon class="cls-78" points="370.22 58.19 369.73 66.02 402.81 68.4 406.06 65.33 402.11 61.22 370.22 58.19"/></g></g></svg>