<svg xmlns="http://www.w3.org/2000/svg" viewBox="0 0 519.5 181.2"><defs><style>.cls-1{fill:#fff;}</style></defs><g id="Layer_2" data-name="Layer 2"><g id="Layer_1-2" data-name="Layer 1"><path class="cls-1" d="M0,59.88c9.86-1.34,19.68-2.51,29.25,1.66a14.91,14.91,0,0,0,5.66,1.32c36.12.09,72.24,0,108.35.18,3.31,0,5.17-1.08,6.75-3.85.9-1.58,2.82-3.78,4.15-3.69,4.13.28,5.4-2.4,7.07-5.11,4.17-6.75,7.51-14.18,15.24-18,.88-.44,1.24-2.55,1.3-3.9q.25-7,.09-14c-.07-3.18,1.2-4.54,4.43-4.46,5.45.13,10.91,0,16.12,0,1.93-3.84-2-10,6.19-10s5.18,5.78,6.32,10c13,0,26-.07,38.9,0,13.77.09,11.68-1.8,11.85,11.93,0,.83,0,1.66,0,2.49,0,7.37,0,7.28-7.16,7.69-1.37.08-2.67,1.12-4,1.71,1.15,1,2.12,2.58,3.47,3.06,5,1.77,7.68,4.91,7.87,10.3.15,4.3,0,8.61,0,13.34h14.49c-.88-5.67,2.89-5.39,6.85-5.38,27.13.09,54.26,0,81.4.15,3.39,0,5.77-.73,8.07-3.47,4.7-5.6,9.94-10.75,14.89-16.15,2.34-2.55,5.37-4.45,8.28-2.41a10.63,10.63,0,0,1,3.84,7.22c.5,7.58.18,15.22.18,23.46H512c6.05,0,9.58,5.77,6.28,10.78-.79,1.2-3.46,1.61-5.26,1.62q-47.19.18-94.38.15H401.42c-1.65,2.58-2.91,4.57-4.18,6.55-1.12-1.75-2.23-3.51-3.9-6.13H378c-1.92,11-9.75,13-19.81,12.91-25.29-.34-50.6-.08-75.9-.07-3.06,0-6.55.63-5.87-4.72H265c-.66,0-1.84,0-1.9.2-1.84,6.73-7.83,3.59-13,5.17,1,11.67,1.33,23.49,3.3,35,2.28,13.4,5.88,26.59,9.22,39.8.93,3.68.33,5.44-3.42,6.64-8.23,2.63-16.38,5.53-24.47,8.6-3.8,1.44-6,.83-6.95-3.33-3.61-15.7-7.3-31.39-10.92-47.09-.41-1.78-.54-3.62-.84-5.42-.66-4.09-3.1-5.34-7.11-5.07-6.4.43-12.87.1-19.24.73-2.65.27-6.31,1.51-7.49,3.5-6.7,11.26-12.67,22.95-19.23,34.3a6.49,6.49,0,0,1-5.47,2.48c-8.3-1.73-16.5-3.93-24.67-6.2-4.19-1.16-4.56-3.26-2-7,9.18-13.48,18.22-27,27.41-40.51,2.25-3.31,1.55-5.51-1.87-7.2a42.92,42.92,0,0,0-4-2.11c-6.38-2.32-9.75-6.36-8.45-13.53.53-2.91-1-4.21-4-4.12-5.16.17-10.32,0-15.48.16-1.24,0-2.9.33-3.61,1.15-3.47,4.07-8.27,4.59-13,5.48-12.56,2.34-25.1,4.75-37.41,7.09a6,6,0,0,0-.55,1.32c-.8,12-.79,12.06-12.35,15.09-17.21,4.5-34.43,9-51.67,13.39-1.83.46-3.85.16-5.78.21ZM256.8,55c0-2.83.09-5.13,0-7.42-.16-3.5-2-5.64-5.53-5.89-20.07-1.42-40.12-3.05-60.21-4-9.57-.45-18,7.4-20.17,17.31Zm-66.39,46.59c-3.86.64-6.35,2.65-6.7,6.72-.33,3.89,1.79,6.37,5.25,7.55a28.16,28.16,0,0,0,19.08-.12c3.72-1.34,5.62-4.22,4.85-8.23-1-5.06-5.1-6.15-9.33-6.79-3.22-.48-6.82-1.49-8,3.27-.89,3.56-1.85,7.1-2.78,10.65l-1.54,0ZM394.28,63.72V42.07c-8.9,5.57-17,16.44-16.22,21.65ZM218.12,32v.9c7.55.78,15.1,1.62,22.66,2.27,1,.09,2.12-.7,3.19-1.08-1-.69-2-2-3-2C233.33,32,225.72,32,218.12,32Z"/></g></g></svg>