<svg xmlns="http://www.w3.org/2000/svg" viewBox="0 0 915.54 216.14"><defs><style>.cls-1{fill:#fff;}</style></defs><g id="Layer_2" data-name="Layer 2"><g id="Layer_1-2" data-name="Layer 1"><g id="lWt1MI.tif"><path class="cls-1" d="M509.56,58.43a3.47,3.47,0,0,0,1.61.54c12.84.82,25.69,2.31,38.53,2.3q147.13-.09,294.26-.7c3.07,0,6.43.9,8.76-2.31.34-.46,1.55-.42,2.34-.41,5.89.12,11.92-.44,17.6.71,3.8.78,7.07.5,10.77.2,8.58-.68,17.24-.27,25.86-.34,2.82,0,5.25,1.27,5.74,3.8a30.43,30.43,0,0,1,.12,10.34c-.47,2.89-2.88,4.34-6.09,4.27-5-.12-9.94.24-14.88,0-5.3-.32-10.87,1.72-15.88-1.63-.34-.23-1.1.2-1.67.27l-9,1.12c-3.68.46-7.35,1-11,1.38-2.15.25-4.07.13-5.7-1.87a6,6,0,0,0-4.18-1.82c-38.88.27-77.75.67-116.63,1-8.59.08-17.18,0-25.72,0,.54,3,1,5.62,1.48,8.4h14.83c6.24,0,6.71.41,7.33,6.61a15.55,15.55,0,0,1,0,2.46c-.24,4.15-.51,8.29-.79,12.86,1.51-.31,2.84-.66,4.19-.83,4.35-.56,8.62,0,11.66,3.29,1.79,1.93,3.47,2.88,6,2.78,19.13-.74,38.34,1,57.4-1.84,2.7-.41,5.64.49,7.88-2,.27-.3,1.54.11,2.21.45a29.86,29.86,0,0,1,3.3,2.07c2.46,1.66,4.84,2.28,7.28-.13a2.42,2.42,0,0,1,2.19-.48c2,1,4.31,2,5.51,3.68a5.87,5.87,0,0,1,.06,5.35c-1,1.65-3.17,2.85-5.09,3.59-.84.33-2.29-1-3.51-1.46a8,8,0,0,0-2.09-.22c-2.22-.14-4.45-.32-6.67-.37a2.84,2.84,0,0,0-1.79.64c-3,2.57-8.43,2.17-11.12-.82a2.19,2.19,0,0,0-1.48-.62c-5.74,0-11.48-.07-17.2.16-11.26.44-22.5,1.12-33.75,1.58-2.67.1-5.36-.3-8.16-.48-.73,4.41-4,5.43-7.38,5.12-8.26-.74-16.51-1.77-24.72-3-5-.75-7.3-7.82-4.78-12.18,1.86-3.21,5.14-6.65,1.69-11.11l-3.17.25c-.68,5.1-2.27,6.64-6.64,6.68q-83,.77-165.9,1.53c-5.31,0-10.66.36-15.92-.17-2.55-.26-4.18,0-5.87,1.85q-13.49,15-27.15,29.84a10.64,10.64,0,0,1-3.39,2.19,58,58,0,0,1-5.46,2.1c-2.17.75-4.35,2-6.57,2.05-21.72.93-43.45,1.64-65.18,2.49-3.82.15-7.51.25-10.75-2.32a4.61,4.61,0,0,0-2.66-.62q-16.66,0-33.32.15c-17.72.14-35.44.35-53.16.43-5,0-9.72-.84-11.45-6.65-.1-.34-.51-.6-1-1.19-2.45,4.5-5.46,8.41-6.72,12.82-1.35,4.76-3.88,7.44-8.27,9a7.61,7.61,0,0,0-5.13,7c-.16,4.57-3.12,6.83-5.6,10-2.85,3.61-5.44,8.33-5.75,12.74-.25,3.52-.55,6.61-2.42,9.44-.64,1-2.22,2.07-3.19,1.93-4.65-.68-9.52-1.09-13.79-2.85-7.08-2.9-13.8-6.69-20.57-10.28a6.45,6.45,0,0,1-2.3-3.18c-2.82-6.68.43-12,4-17.24,6.74-9.79,16.06-16.82,25.31-24,5-3.87,8.61-8.53,7.85-15.52-.57-5.19-1.7-6.5-6.84-6.41-9.33.16-18.67.25-28,.49-3,.08-6,.53-9,.8,0,3.08-.1,5.84,0,8.58.11,2.34-1.12,3.27-3.15,3.32-4,.09-7.95,0-12,0-2.38,3.75-5.21,5.63-7.66,4.05-3.92-2.55-7.35-1.12-11,.15q-23.72,8.32-47.44,16.66c-9.46,3.31-19.06,6.3-28.37,10-7,2.79-13.13,7.94-21.15,7.63,0,9.47,0,18.65.09,27.82,0,.73,1.34,2.07,2,2,3.64-.21,4.49,1.63,4.15,4.77a17.18,17.18,0,0,0,0,4.24c.35,2.39-.72,3.63-3,3.8-5.29.39-10.58.71-15.88.89-.9,0-2.58-.68-2.63-1.17-.29-3.27-.67-6.65-.06-9.81.2-1,3.33-1.45,5.11-2.17.21-.09.36-.3.16-.13v-30.3c-2.91,0-5.26-.11-7.6.06a3.15,3.15,0,0,0-2.27,1.27c-1.27,2.43-3.32,2.79-5.68,2.49-2.52-.32-5-.75-7.54-1.1a3.72,3.72,0,0,0-1.41,0c-1.52.4-3,1.26-4.51,1.22-2.65-.06-5.3-1-7.92-.95-4.76.14-9.5,1.07-14.26,1.13-8.81.1-14.75-5.94-16.28-14.22-3-16.19-2.71-32.63-2.5-49,.11-7.94.16-16,4-23.48a14.76,14.76,0,0,1,6.37-6.73c4.93-2.67,10.12-1.82,15.25-1.84,2.19,0,4.39.77,7,1.26,2.94-2.59,8.11-2.62,12.91.36,3.59-3.51,10.6-3.09,13.5.71a3.1,3.1,0,0,0,2.2,1c9,0,18,0,26.93-.4a18,18,0,0,1,11,3,4.87,4.87,0,0,1,2,3.18c.26,3.37.09,6.76.09,10.11h30.76c.06-1.25.15-2.17.15-3.09,0-8.48,0-8.44-8.52-8.47-4.6,0-9.2-.1-13.79-.39-3-.19-4.61-1.62-4.46-5,.13-2.87-.6-5.78-.94-8.68-.75-6.55,1-11.26,8.73-11.42,2.36-.05,4.72-.28,7.08-.3q43.43-.28,86.86-.51a40,40,0,0,1,7.75.51,6,6,0,0,1,5.14,5.87c.21,3.09,1.32,7.13-2.56,8.26-3.38,1-4,3.25-4.94,5.69-2.1,5.35-2.08,5.42-7.83,5.48-12.52.12-25.05.17-37.58.23a16.39,16.39,0,0,1-2.79-.28c-2.61-.44-5.22-.92-7.87-1.39V100.2a6.4,6.4,0,0,0,1.31.38q18.78-.15,37.57-.34c.69,0,1.91-.08,2-.38,1.29-4.49,5-2.23,7.64-2.7.66-.12,1.51.67,2.24,1.09,1.14.67,2.22,1.92,3.38,2,5.9.3,11.81.33,17.71.4,5,.05,10.07.82,14.85-.11,8.24-1.6,16.28-4.23,24.38-6.5,15.79-4.42,31.59-8.85,47.33-13.43a5.63,5.63,0,0,0,3.26-2.94,25.61,25.61,0,0,1,11-13.22c8.57-5.22,17.85-7.08,27.76-6.81,5.73.16,11.47,0,17.67,0-1.4-4.77,1.93-5.54,4.22-6.92,2-1.21,3.7-.46,5.22,1.37.55.66,2.07.53,3.43.82.31-4.18.58-7.93.84-11.44-6.86,0-13.11.09-19.36,0a18.5,18.5,0,0,0-9.1,1.92c-1.73.88-4.07.81-6.12.75-2.89-.08-5.78-.85-8.66-.8-14.47.24-28.95.7-43.43.91a3.57,3.57,0,0,1-2.6-2.28c-.3-8.47-.37-16.94-.45-25.42,0-2,1-3,3.13-2.76s4.47.31,6.71.35c11.9.18,23.8.38,35.71.44,3.12,0,6.25-.61,9.39-.67a33.89,33.89,0,0,1,6.18.61c2.82.46,5.65,1.68,8.4,1.51,7.43-.47,14.83.77,22.36-.58,4.07-.74,9-2,13.28,1.58,1.49,1.22,4.83,0,7.27.34,5.94.82,9.09-3.29,6-9.7-1.47-3.06-.29-7.46,2.08-7.52C426-.06,432.8,0,439.65.1c.82,0,2.31,1,2.32,1.55a19.85,19.85,0,0,1-.67,6.44c-1.35,4.3-.59,9.86,5.89,9.27,2.46-.22,5,0,7.44-.05a4.09,4.09,0,0,0,2.34-.45c4.49-3.77,10.36-2.61,14.27-1.11a13.48,13.48,0,0,0,9.37.32,164.55,164.55,0,0,1,53.94-5.89c6.37.32,12.77.27,19.14,0,3.4-.13,5,1.19,5.67,4.33a68.84,68.84,0,0,1-.19,28.76c-.61,2.81-2.18,4-5.26,4-13.82-.11-27.65.13-41.47,0a66.52,66.52,0,0,1-12.24-1.45c-7.87-1.56-15.67-3.48-23.52-5.15-1.46-.31-3.59-1.1-3.69,1.66-.12,3.25,0,6.5,0,10,6.48,0,12.6,0,18.72,0a3.09,3.09,0,0,0,1.59-.63c4.92-3.5,10.42-1.39,11.23,3.36C506.6,56.42,508.05,57.47,509.56,58.43ZM339.79,140.32c4.29,0,6.8-1.9,8.15-5.83,1.08-3.12,2.19-6.22,3.26-9.33s0-5.24-3.3-5.25c-10.85,0-21.71,0-32.55.35-4.28.14-7.7,5.53-7.41,10.88a15.18,15.18,0,0,0,1.09,4.78c1.25,3.08,3,5.25,7.06,4.72,3.59-.47,7.3-.1,11-.1v-.21C331.29,140.33,335.54,140.36,339.79,140.32Zm-168.12-4.68c0-.23-.09-.46-.13-.68-4.29,0-8.58,0-12.87,0a2.62,2.62,0,0,0-1.77.81c-2.59,3.21-5.92,4.36-10,4.06-2.35-.18-4.76.28-7.07-.05-2-.28-4.57-.71-5.68-2.07-2-2.41-4.16-2.38-6.74-2.33-7.44.14-14.88.16-22.32.21-1.61,0-3.06-.06-3,2.3.08,7,0,14.08,0,21.8ZM457,40.42c-5.21.84-10.48-1.73-15.33,1.88a5.61,5.61,0,0,1-3.06.51c-5.06,0-10.13,0-15.2,0a25.15,25.15,0,0,1-8-1.57c-3.66-1.23-8.05-.3-12.14-.3-1.21,5.6-1,5.9,4.43,5.88q22.62-.09,45.25-.22c1.28,0,2.55-.13,4.07-.21Zm-149.43,80c-3.34,0-6.28-.53-8.86.2-1.56.45-3.33,2.72-3.64,4.43-.57,3.06-1.07,6.76.17,9.35s4.55,4.64,7.23,6.5c.95.66,2.76.15,4.17.09.91-.05,1.83-.25,3.32-.47C304.64,134.2,302.89,127.84,307.54,120.43ZM561.59,100c1.08-.11,2-1.35,3.07-2.07-1-.61-2-1.72-3-1.74-5.65-.1-11.31,0-17,.23-1.11.05-2.16,1.2-3.24,1.84,1.16.64,2.27,1.72,3.49,1.85a78.47,78.47,0,0,0,8.12.09v-.1A79.88,79.88,0,0,0,561.59,100Zm39-.44c1-.1,1.79-1.32,2.69-2-.9-.55-1.78-1.57-2.69-1.59-5.77-.11-11.56-.09-17.33.12-1,0-1.88,1.25-2.81,1.92.93.65,1.83,1.78,2.82,1.86,2.92.25,5.89.09,8.84.09v-.28C595,99.61,597.82,99.79,600.62,99.52Zm73.22-.68c.93-.09,1.75-1.3,2.62-2-.88-.55-1.74-1.54-2.63-1.56-5.57-.12-11.14-.11-16.7.1-1,0-1.92,1.17-2.88,1.81,1,.66,2,1.78,3,1.89,2.68.27,5.4.09,8.11.09v-.24C668.21,98.93,671.05,99.11,673.84,98.84Zm-38.13.44c1-.09,1.86-1.27,2.78-2-1-.62-1.89-1.76-2.86-1.78q-8.49-.14-17,.23c-.93,0-1.82,1.27-2.72,1.94,1,.6,1.88,1.62,2.88,1.7,2.8.23,5.63.08,8.45.08v-.12C630.08,99.38,632.92,99.55,635.71,99.28Zm256.86-35.2.3,5.89c2.61.42,2.61.42,2.89-5.89ZM146.11,98.42c.17-.62-1.29-1.69-2-2.56L142,100l1.6,1.17C144.5,100.27,145.81,99.49,146.11,98.42Z"/></g></g></g></svg>